<?xml version="1.0" encoding="UTF-8"?>
<svg width="146px" height="129px" viewBox="0 0 146 129" version="1.1" xmlns="http://www.w3.org/2000/svg" xmlns:xlink="http://www.w3.org/1999/xlink">
    <!-- Generator: Sketch 55.1 (78136) - https://sketchapp.com -->
    <title>tc_creator_icon 1</title>
    <desc>Created with Sketch.</desc>
    <defs>
        <path d="M0.915691176,53.3582632 L37.3251176,78.3420132 C52.0837206,74.3182105 70.4539265,53.1004737 70.9436176,34.3816316 L21.3960588,0.5135 L0.915691176,53.3582632 Z" id="path-1"></path>
        <path d="M0.915691176,53.3582632 L37.3251176,78.3420132 C52.0837206,74.3182105 70.4539265,53.1004737 70.9436176,34.3816316 L21.3960588,0.5135 L0.915691176,53.3582632 Z" id="path-3"></path>
        <path d="M0.915691176,53.3582632 L37.3251176,78.3420132 C52.0837206,74.3182105 70.4539265,53.1004737 70.9436176,34.3816316 L21.3960588,0.5135 L0.915691176,53.3582632 Z" id="path-5"></path>
        <path d="M0.915691176,53.3582632 L37.3251176,78.3420132 C52.0837206,74.3182105 70.4539265,53.1004737 70.9436176,34.3816316 L21.3960588,0.5135 L0.915691176,53.3582632 Z" id="path-7"></path>
        <path d="M0.915691176,53.3582632 L37.3251176,78.3420132 C52.0837206,74.3182105 70.4539265,53.1004737 70.9436176,34.3816316 L21.3960588,0.5135 L0.915691176,53.3582632 Z" id="path-9"></path>
        <path d="M0.915691176,53.3582632 L37.3251176,78.3420132 C52.0837206,74.3182105 70.4539265,53.1004737 70.9436176,34.3816316 L21.3960588,0.5135 L0.915691176,53.3582632 Z" id="path-11"></path>
    </defs>
    <g id="Page-1" stroke="none" stroke-width="1" fill="none" fill-rule="evenodd">
        <g id="Artboard" transform="translate(-150.000000, -1166.000000)">
            <g id="tc_creator_icon-1" transform="translate(150.000000, 1166.000000)">
                <g id="Group" transform="translate(75.000000, 50.000000)">
                    <g id="Clipped">
                        <mask id="mask-2" fill="white">
                            <use xlink:href="#path-1"></use>
                        </mask>
                        <g id="SVGID_1_"></g>
                        <g id="Group" mask="url(#mask-2)">
                            <g transform="translate(59.514706, -17.671053)">
                                <polygon id="Rectangle" fill="none" transform="translate(24.328747, 26.723391) rotate(172.888486) translate(-24.328747, -26.723391) " points="3.0023384 3.2530232 45.6294076 3.27631613 45.655156 50.1937596 3.02808677 50.1704666"></polygon>
                                <polygon id="Path" fill="#231F20" fill-rule="nonzero" points="2.33360294 5.82625 2.556 7.60375 4.17438235 7.40313158 4.23180882 7.85738158 2.61342647 8.058 2.83895588 9.85109211 2.38058824 9.90826316 2.15610294 8.11517105 0.537720588 8.31578947 0.480294118 7.86153947 2.09867647 7.66092105 1.87523529 5.88238158"></polygon>
                                <polygon id="Path" fill="#231F20" fill-rule="nonzero" points="10.9172941 4.75975 11.1396912 6.53725 12.7580735 6.33663158 12.8155 6.79088158 11.1971176 6.9915 11.4216029 8.78459211 10.9642794 8.84176316 10.7397941 7.04867105 9.12141176 7.24928947 9.06398529 6.79503947 10.6823676 6.59442105 10.4589265 4.81692105"></polygon>
                                <polygon id="Path" fill="#231F20" fill-rule="nonzero" points="7.11148529 10.8926447 7.33388235 12.6701447 8.95226471 12.4695263 9.00969118 12.9237763 7.39130882 13.1243947 7.61579412 14.9174868 7.15847059 14.9746579 6.93398529 13.1815658 5.31560294 13.3821842 5.25817647 12.9279342 6.87655882 12.7273158 6.65311765 10.9498158"></polygon>
                                <polygon id="Path" fill="#231F20" fill-rule="nonzero" points="4.07310294 18.1450526 4.29654412 19.9235921 5.91388235 19.7229737 5.97130882 20.1772237 4.35292647 20.3778421 4.57845588 22.1709342 4.12008824 22.2281053 3.89560294 20.4339737 2.27722059 20.6356316 2.21979412 20.1813816 3.83817647 19.9807632 3.61577941 18.2022237"></polygon>
                                <polygon id="Path" fill="#231F20" fill-rule="nonzero" points="12.6567941 17.0785526 12.8791912 18.8560526 14.4975735 18.6554342 14.555 19.1096842 12.9366176 19.3103026 13.1621471 21.1033947 12.7037794 21.1605658 12.4792941 19.3674737 10.8609118 19.5680921 10.8034853 19.1138421 12.4218676 18.9121842 12.1984265 17.1346842"></polygon>
                                <polygon id="Path" fill="#231F20" fill-rule="nonzero" points="8.85098529 23.2114474 9.07338235 24.9889474 10.6917647 24.7883289 10.7491912 25.2425789 9.13080882 25.4431974 9.35633824 27.2362895 8.89797059 27.2934605 8.67348529 25.5003684 7.05510294 25.7009868 6.99767647 25.2467368 8.61605882 25.0450789 8.39261765 23.2675789"></polygon>
                                <polygon id="Path" fill="#231F20" fill-rule="nonzero" points="5.41897059 30.4389079 5.64136765 32.2164079 7.25975 32.0157895 7.31717647 32.4700395 5.69879412 32.6716974 5.92432353 34.4647895 5.46595588 34.5219605 5.24147059 32.7288684 3.62308824 32.9294868 3.56566176 32.4741974 5.18404412 32.2735789 4.96060294 30.4950395"></polygon>
                                <polygon id="Path" fill="#231F20" fill-rule="nonzero" points="10.1958088 35.5042632 10.41925 37.2828026 12.0376324 37.0821842 12.0950588 37.5364342 10.4766765 37.7370526 10.7011618 39.5311842 10.2438382 39.5883553 10.0193529 37.7942237 8.40097059 37.9948421 8.34354412 37.5405921 9.96192647 37.3399737 9.73848529 35.5614342"></polygon>
                                <polygon id="Path" fill="#231F20" fill-rule="nonzero" points="7.15847059 42.7577105 7.38086765 44.5352105 8.99925 44.3345921 9.05667647 44.7898816 7.43829412 44.9905 7.66382353 46.7835921 7.20545588 46.8407632 6.98097059 45.0476711 5.36258824 45.2482895 5.30516176 44.793 6.92354412 44.5923816 6.70010294 42.8148816"></polygon>
                                <polygon id="Path" fill="#231F20" fill-rule="nonzero" points="11.9363529 47.8230658 12.15875 49.6016053 13.7771324 49.4009868 13.8345588 49.8552368 12.2161765 50.0558553 12.4406618 51.8499868 11.9833382 51.9071579 11.7588529 50.1140658 10.1404706 50.3146842 10.0830441 49.8593947 11.7014265 49.6587763 11.4779853 47.8802368"></polygon>
                            </g>
                        </g>
                    </g>
                    <g id="Clipped">
                        <mask id="mask-4" fill="white">
                            <use xlink:href="#path-3"></use>
                        </mask>
                        <g id="SVGID_1_"></g>
                        <g id="Group" mask="url(#mask-4)">
                            <g transform="translate(64.735294, 29.105263)">
                                <polygon id="Rectangle" fill="none" transform="translate(24.945721, 26.497283) rotate(172.888486) translate(-24.945721, -26.497283) " points="3.61931242 3.0269149 46.2463816 3.05020784 46.27213 49.9676513 3.64506079 49.9443583"></polygon>
                                <polygon id="Path" fill="#231F20" fill-rule="nonzero" points="2.94754412 5.60380263 3.16994118 7.38234211 4.78832353 7.18172368 4.84575 7.63597368 3.22736765 7.83763158 3.45289706 9.63072368 2.99452941 9.68789474 2.77004412 7.89480263 1.15166176 8.09542105 1.09423529 7.64013158 2.71261765 7.43951316 2.48917647 5.66201316"></polygon>
                                <polygon id="Path" fill="#231F20" fill-rule="nonzero" points="7.72647059 10.6701974 7.94886765 12.4487368 9.56725 12.2481184 9.62467647 12.7023684 8.00629412 12.9029868 8.23077941 14.6971184 7.77345588 14.7542895 7.54897059 12.9601579 5.93058824 13.1607763 5.87316176 12.7065263 7.49154412 12.5059079 7.26810294 10.7273684"></polygon>
                                <polygon id="Path" fill="#231F20" fill-rule="nonzero" points="4.68808824 17.9226053 4.91152941 19.7001053 6.52886765 19.4994868 6.58629412 19.9547763 4.96791176 20.1553947 5.19344118 21.9484868 4.73507353 22.0056579 4.51058824 20.2125658 2.89220588 20.4131842 2.83477941 19.9578947 4.45316176 19.7572763 4.23076471 17.9797763"></polygon>
                                <polygon id="Path" fill="#231F20" fill-rule="nonzero" points="6.03395588 30.2164605 6.25635294 31.995 7.87473529 31.7943816 7.93216176 32.2486316 6.31377941 32.4502895 6.53930882 34.2433816 6.08094118 34.3005526 5.85645588 32.5074605 4.23807353 32.7080789 4.18064706 32.2527895 5.79902941 32.0521711 5.57558824 30.2746711"></polygon>
                                <polygon id="Path" fill="#231F20" fill-rule="nonzero" points="7.77345588 42.5352632 7.99585294 44.3127632 9.61423529 44.1121447 9.67166176 44.5674342 8.05327941 44.7680526 8.27880882 46.5611447 7.82044118 46.6183158 7.59595588 44.8252237 5.97757353 45.0258421 5.92014706 44.5705526 7.53852941 44.3699342 7.31508824 42.5924342"></polygon>
                            </g>
                        </g>
                    </g>
                    <g id="Clipped">
                        <mask id="mask-6" fill="white">
                            <use xlink:href="#path-5"></use>
                        </mask>
                        <g id="SVGID_1_"></g>
                        <g id="Group" mask="url(#mask-6)">
                            <g transform="translate(16.705882, -12.473684)">
                                <polygon id="Rectangle" fill="none" transform="translate(24.834904, 26.783429) rotate(172.888486) translate(-24.834904, -26.783429) " points="3.50849552 3.31306122 46.1355647 3.33635416 46.1613131 50.2537976 3.53424389 50.2305047"></polygon>
                                <polygon id="Path" fill="#231F20" fill-rule="nonzero" points="2.83895588 5.8855 3.06135294 7.663 4.67973529 7.46238158 4.73716176 7.91663158 3.11877941 8.11725 3.34430882 9.91034211 2.88594118 9.96751316 2.66145588 8.17442105 1.04307353 8.37503947 0.985647059 7.92078947 2.60402941 7.72017105 2.38058824 5.94163158"></polygon>
                                <polygon id="Path" fill="#231F20" fill-rule="nonzero" points="11.4236912 4.819 11.6460882 6.5965 13.2644706 6.39588158 13.3218971 6.85013158 11.7035147 7.05075 11.928 8.84384211 11.4706765 8.90101316 11.2461912 7.10792105 9.62780882 7.30853947 9.57038235 6.85428947 11.1887647 6.65367105 10.9653235 4.87617105"></polygon>
                                <polygon id="Path" fill="#231F20" fill-rule="nonzero" points="20.0073824 3.7525 20.2297794 5.53103947 21.8481618 5.33042105 21.9055882 5.78467105 20.2872059 5.98528947 20.5116912 7.77942105 20.0543676 7.83659211 19.8298824 6.0435 18.2104559 6.24411842 18.1540735 5.78986842 19.7724559 5.58925 19.5490147 3.81071053"></polygon>
                                <polygon id="Path" fill="#231F20" fill-rule="nonzero" points="28.5910735 2.686 28.8145147 4.4635 30.4328971 4.26288158 30.4903235 4.71713158 28.8719412 4.91775 29.0964265 6.71084211 28.6391029 6.76801316 28.4135735 4.97492105 26.7951912 5.17553947 26.7388088 4.72128947 28.3561471 4.52067105 28.13375 2.74213158"></polygon>
                                <polygon id="Path" fill="#231F20" fill-rule="nonzero" points="37.1758088 1.6195 37.39925 3.397 39.0165882 3.19638158 39.0740147 3.65063158 37.4556324 3.85125 37.6811618 5.64434211 37.2227941 5.70151316 36.9983088 3.90842105 35.3799265 4.10903947 35.3225 3.65478947 36.9408824 3.45417105 36.7174412 1.67667105"></polygon>
                                <polygon id="Path" fill="#231F20" fill-rule="nonzero" points="7.61683824 10.9518947 7.83923529 12.7293947 9.45761765 12.5287763 9.51504412 12.9830263 7.89666176 13.1836447 8.12114706 14.9767368 7.66382353 15.0339079 7.43933824 13.2408158 5.82095588 13.4414342 5.76352941 12.9871842 7.38191176 12.7865658 7.15847059 11.0090658"></polygon>
                                <polygon id="Path" fill="#231F20" fill-rule="nonzero" points="16.2005294 9.88539474 16.4239706 11.6639342 18.0423529 11.4633158 18.0997794 11.9175658 16.4813971 12.1181842 16.7058824 13.9123158 16.2485588 13.9694868 16.0230294 12.1763947 14.4046471 12.3770132 14.3482647 11.9227632 15.9656029 11.7221447 15.7432059 9.94360526"></polygon>
                                <polygon id="Path" fill="#231F20" fill-rule="nonzero" points="24.7852647 8.81889474 25.0087059 10.5963947 26.6260441 10.3957763 26.6834706 10.8500263 25.0661324 11.0506447 25.2906176 12.8437368 24.8332941 12.9009079 24.6077647 11.1078158 22.9893824 11.3084342 22.9319559 10.8541842 24.5503382 10.6535658 24.3279412 8.87502632"></polygon>
                                <polygon id="Path" fill="#231F20" fill-rule="nonzero" points="33.3689559 7.75239474 33.5923971 9.52989474 35.2097353 9.32927632 35.2671618 9.78352632 33.6487794 9.98414474 33.8743088 11.7772368 33.4159412 11.8344079 33.1914559 10.0413158 31.5730735 10.2419342 31.5156471 9.78768421 33.1340294 9.58706579 32.9105882 7.80956579"></polygon>
                                <polygon id="Path" fill="#231F20" fill-rule="nonzero" points="41.9536912 6.68485526 42.1760882 8.46339474 43.7944706 8.26277632 43.8518971 8.71702632 42.2335147 8.91764474 42.4590441 10.7117763 42.0006765 10.7689474 41.7761912 8.97585526 40.1567647 9.17647368 40.1003824 8.72222368 41.7187647 8.52160526 41.4953235 6.74306579"></polygon>
                                <polygon id="Path" fill="#231F20" fill-rule="nonzero" points="4.57845588 18.2032632 4.80189706 19.9818026 6.41923529 19.7811842 6.47666176 20.2354342 4.85827941 20.4360526 5.08380882 22.2291447 4.62544118 22.2863158 4.40095588 20.4921842 2.78257353 20.6938421 2.72514706 20.2395921 4.34352941 20.0389737 4.12113235 18.2604342"></polygon>
                                <polygon id="Path" fill="#231F20" fill-rule="nonzero" points="13.1631912 17.1378026 13.3855882 18.9153026 15.0039706 18.7146842 15.0613971 19.1689342 13.4430147 19.3695526 13.6685441 21.1626447 13.2101765 21.2198158 12.9856912 19.4267237 11.3673088 19.6273421 11.3098824 19.1730921 12.9282647 18.9714342 12.7048235 17.1939342"></polygon>
                                <polygon id="Path" fill="#231F20" fill-rule="nonzero" points="21.7468824 16.0702632 21.9692794 17.8488026 23.5876618 17.6481842 23.6450882 18.1024342 22.0267059 18.3030526 22.2522353 20.0961447 21.7938676 20.1533158 21.5693824 18.3602237 19.951 18.5608421 19.8935735 18.1065921 21.5119559 17.9059737 21.2885147 16.1284737"></polygon>
                                <polygon id="Path" fill="#231F20" fill-rule="nonzero" points="30.3305735 15.0037632 30.5540147 16.7823026 32.1723971 16.5806447 32.2298235 17.0348947 30.6114412 17.2355132 30.8359265 19.0286053 30.3786029 19.0857763 30.1530735 17.2916447 28.5346912 17.4922632 28.4783088 17.0380132 30.0966912 16.8373947 29.87325 15.0588553"></polygon>
                                <polygon id="Path" fill="#231F20" fill-rule="nonzero" points="38.9153088 13.9372632 39.13875 15.7147632 40.7560882 15.5141447 40.8135147 15.9683947 39.1951324 16.1690132 39.4206618 17.9621053 38.9633382 18.0192763 38.7378088 16.2261842 37.1194265 16.4268026 37.062 15.9725526 38.6803824 15.7708947 38.4579853 13.9933947"></polygon>
                                <polygon id="Path" fill="#231F20" fill-rule="nonzero" points="9.35633824 23.2696579 9.57873529 25.0471579 11.1971176 24.8465395 11.2545441 25.3007895 9.63616176 25.5014079 9.86169118 27.2945 9.40332353 27.3516711 9.17883824 25.5585789 7.56045588 25.7591974 7.50302941 25.3049474 9.12141176 25.1032895 8.89797059 23.3257895"></polygon>
                                <polygon id="Path" fill="#231F20" fill-rule="nonzero" points="17.9400294 22.2041974 18.1634706 23.9816974 19.7818529 23.7810789 19.8382353 24.2353289 18.2198529 24.4359474 18.4443382 26.2290395 17.9870147 26.2862105 17.7614853 24.4931184 16.1441471 24.6937368 16.0867206 24.2394868 17.7051029 24.0388684 17.4816618 22.2613684"></polygon>
                                <polygon id="Path" fill="#231F20" fill-rule="nonzero" points="26.5247647 21.1366579 26.7482059 22.9151974 28.3655441 22.7145789 28.4229706 23.1688289 26.8056324 23.3694474 27.0301176 25.1625395 26.5727941 25.2197105 26.3472647 23.4255789 24.7288824 23.6272368 24.6714559 23.1729868 26.2908824 22.9723684 26.0674412 21.1938289"></polygon>
                                <polygon id="Path" fill="#231F20" fill-rule="nonzero" points="35.1084559 20.0701579 35.3318971 21.8476579 36.9492353 21.6470395 37.0066618 22.1012895 35.3882794 22.3019079 35.6138088 24.095 35.1564853 24.1521711 34.9309559 22.3590789 33.3125735 22.5596974 33.2551471 22.1054474 34.8735294 21.9048289 34.6511324 20.1273289"></polygon>
                                <polygon id="Path" fill="#231F20" fill-rule="nonzero" points="43.6931912 19.0036579 43.9155882 20.7811579 45.5339706 20.5805395 45.5913971 21.0347895 43.9730147 21.2364474 44.1985441 23.0295395 43.7401765 23.0867105 43.5156912 21.2936184 41.8973088 21.4942368 41.8398824 21.0399868 43.4582647 20.8393684 43.2348235 19.0618684"></polygon>
                                <polygon id="Path" fill="#231F20" fill-rule="nonzero" points="5.92432353 30.4971184 6.14672059 32.2756579 7.76510294 32.0750395 7.82252941 32.5292895 6.20414706 32.7309474 6.42967647 34.5240395 5.97130882 34.5812105 5.74682353 32.7881184 4.12844118 32.9887368 4.07101471 32.5334474 5.68939706 32.3328289 5.46595588 30.5553289"></polygon>
                                <polygon id="Path" fill="#231F20" fill-rule="nonzero" points="14.5080147 29.4316579 14.7314559 31.2101974 16.3498382 31.0085395 16.4072647 31.4638289 14.7888824 31.6644474 15.0133676 33.4575395 14.5560441 33.51575 14.3305147 31.7216184 12.7131765 31.9222368 12.65575 31.4679868 14.2741324 31.2673684 14.0506912 29.4888289"></polygon>
                                <polygon id="Path" fill="#231F20" fill-rule="nonzero" points="23.0917059 28.3641184 23.3151471 30.1426579 24.9335294 29.9420395 24.9909559 30.3962895 23.3725735 30.5969079 23.5970588 32.3910395 23.1397353 32.4482105 22.9142059 30.6540789 21.2958235 30.8546974 21.2394412 30.4004474 22.8578235 30.1998289 22.6343824 28.4212895"></polygon>
                                <polygon id="Path" fill="#231F20" fill-rule="nonzero" points="31.6764412 27.2976184 31.8998824 29.0761579 33.5182647 28.8755395 33.5746471 29.3297895 31.9573088 29.5314474 32.1817941 31.3245395 31.7244706 31.3817105 31.4989412 29.5886184 29.8805588 29.7892368 29.8231324 29.3339474 31.4415147 29.1333289 31.2191176 27.3558289"></polygon>
                                <polygon id="Path" fill="#231F20" fill-rule="nonzero" points="40.2611765 26.2321579 40.4835735 28.0106974 42.1019559 27.8100789 42.1593824 28.2643289 40.541 28.4649474 40.7665294 30.2580395 40.3081618 30.31625 40.0836765 28.5221184 38.4652941 28.7227368 38.4078676 28.2684868 40.02625 28.0678684 39.8028088 26.2893289"></polygon>
                                <polygon id="Path" fill="#231F20" fill-rule="nonzero" points="10.7011618 35.5635132 10.9246029 37.3420526 12.5429853 37.1414342 12.6004118 37.5956842 10.9820294 37.7963026 11.2065147 39.5904342 10.7491912 39.6476053 10.5247059 37.8534737 8.90632353 38.0540921 8.84889706 37.5998421 10.4672794 37.3992237 10.2438382 35.6206842"></polygon>
                                <polygon id="Path" fill="#231F20" fill-rule="nonzero" points="19.2858971 34.4980526 19.5093382 36.2755526 21.1277206 36.0749342 21.1841029 36.5302237 19.5667647 36.7308421 19.79125 38.5239342 19.3339265 38.5811053 19.1073529 36.7869737 17.4889706 36.9875921 17.4315441 36.5323026 19.0499265 36.3316842 18.8275294 34.5541842"></polygon>
                                <polygon id="Path" fill="#231F20" fill-rule="nonzero" points="27.8706324 33.4305132 28.0940735 35.2090526 29.7114118 35.0084342 29.7688382 35.4626842 28.1515 35.6633026 28.3759853 37.4574342 27.9186618 37.5146053 27.6931324 35.7204737 26.07475 35.9210921 26.0173235 35.4668421 27.6357059 35.2662237 27.4133088 33.4876842"></polygon>
                                <polygon id="Path" fill="#231F20" fill-rule="nonzero" points="36.4543235 32.3640132 36.6767206 34.1425526 38.2951029 33.9419342 38.3525294 34.3961842 36.7341471 34.5968026 36.9596765 36.3909342 36.5013088 36.4481053 36.2768235 34.6539737 34.6584412 34.8545921 34.6010147 34.4003421 36.2193971 34.1997237 35.9959559 32.4211842"></polygon>
                                <polygon id="Path" fill="#231F20" fill-rule="nonzero" points="45.0380147 31.2985526 45.2614559 33.0760526 46.8798382 32.8754342 46.9372647 33.3307237 45.3188824 33.5313421 45.5433676 35.3244342 45.0860441 35.3816053 44.8615588 33.5885132 43.2421324 33.7891316 43.18575 33.3348816 44.8041324 33.1332237 44.5806912 31.3557237"></polygon>
                                <polygon id="Path" fill="#231F20" fill-rule="nonzero" points="7.66382353 42.8169605 7.88622059 44.5944605 9.50460294 44.3938421 9.56202941 44.8491316 7.94364706 45.04975 8.16917647 46.8428421 7.71080882 46.9000132 7.48632353 45.1069211 5.86794118 45.3075395 5.81051471 44.85225 7.42889706 44.6516316 7.20545588 42.8741316"></polygon>
                                <polygon id="Path" fill="#231F20" fill-rule="nonzero" points="16.2485588 41.7494211 16.4709559 43.5279605 18.0893382 43.3273421 18.1467647 43.7815921 16.5283824 43.9822105 16.7528676 45.7763421 16.2955441 45.8335132 16.0710588 44.0393816 14.4526765 44.24 14.39525 43.78575 16.0136324 43.5851316 15.7901912 41.8065921"></polygon>
                                <polygon id="Path" fill="#231F20" fill-rule="nonzero" points="24.83225 40.6829211 25.0546471 42.4614605 26.6730294 42.2608421 26.7304559 42.7150921 25.1120735 42.9157105 25.3365588 44.7098421 24.8792353 44.7670132 24.65475 42.9728816 23.0353235 43.1735 22.9789412 42.71925 24.5973235 42.5186316 24.3738824 40.7400921"></polygon>
                                <polygon id="Path" fill="#231F20" fill-rule="nonzero" points="33.4159412 39.6174605 33.6393824 41.3949605 35.2577647 41.1943421 35.3151912 41.6496316 33.6968088 41.85025 33.9212941 43.6433421 33.4639706 43.7005132 33.2384412 41.9074211 31.6200588 42.1080395 31.5636765 41.65275 33.1810147 41.4521316 32.9586176 39.6746316"></polygon>
                                <polygon id="Path" fill="#231F20" fill-rule="nonzero" points="42.0006765 38.5499211 42.2241176 40.3284605 43.8414559 40.1278421 43.8988824 40.5820921 42.2805 40.7827105 42.5060294 42.5768421 42.0476618 42.6340132 41.8231765 40.8398816 40.2047941 41.0405 40.1473676 40.58625 41.76575 40.3856316 41.5433529 38.6070921"></polygon>
                                <polygon id="Path" fill="#231F20" fill-rule="nonzero" points="12.4417059 47.8823158 12.6641029 49.6608553 14.2824853 49.4602368 14.3399118 49.9144868 12.7215294 50.1151053 12.9460147 51.9092368 12.4886912 51.9664079 12.2642059 50.1733158 10.6458235 50.3739342 10.5883971 49.9186447 12.2067794 49.7180263 11.9833382 47.9394868"></polygon>
                                <polygon id="Path" fill="#231F20" fill-rule="nonzero" points="21.0253971 46.8158158 21.2488382 48.5933158 22.8672206 48.3926974 22.9246471 48.8479868 21.3062647 49.0486053 21.53075 50.8416974 21.0734265 50.8988684 20.8478971 49.1057763 19.2295147 49.3063947 19.1731324 48.8521447 20.7904706 48.6515263 20.5680735 46.8729868"></polygon>
                                <polygon id="Path" fill="#231F20" fill-rule="nonzero" points="29.6101324 45.7493158 29.8335735 47.5278553 31.4509118 47.3272368 31.5083382 47.7814868 29.891 47.9821053 30.1154853 49.7762368 29.6581618 49.8334079 29.4326324 48.0392763 27.81425 48.2398947 27.7568235 47.7856447 29.3752059 47.5850263 29.1528088 45.8064868"></polygon>
                                <polygon id="Path" fill="#231F20" fill-rule="nonzero" points="38.1938235 44.6828158 38.4172647 46.4613553 40.0346029 46.2607368 40.0920294 46.7149868 38.4736471 46.9156053 38.6991765 48.7097368 38.2408088 48.7669079 38.0163235 46.9738158 36.3979412 47.1744342 36.3405147 46.7191447 37.9588971 46.5185263 37.7365 44.7399868"></polygon>
                                <polygon id="Path" fill="#231F20" fill-rule="nonzero" points="46.7785588 43.6163158 47.0009559 45.3938158 48.6193382 45.1931974 48.6767647 45.6484868 47.0583824 45.8491053 47.2839118 47.6421974 46.8255441 47.6993684 46.6010588 45.9062763 44.9816324 46.1068947 44.92525 45.6526447 46.5436324 45.4520263 46.3201912 43.6734868"></polygon>
                            </g>
                        </g>
                    </g>
                    <g id="Clipped">
                        <mask id="mask-8" fill="white">
                            <use xlink:href="#path-7"></use>
                        </mask>
                        <g id="SVGID_1_"></g>
                        <g id="Group" mask="url(#mask-8)">
                            <g transform="translate(22.970588, 34.302632)">
                                <polygon id="Rectangle" fill="none" transform="translate(24.408967, 26.557850) rotate(172.888486) translate(-24.408967, -26.557850) " points="3.08255817 3.0874814 45.7096274 3.11077433 45.7353757 50.0282178 3.10830653 50.0049248"></polygon>
                                <polygon id="Path" fill="#231F20" fill-rule="nonzero" points="2.41086765 5.66201316 2.63326471 7.44055263 4.25164706 7.23993421 4.30907353 7.69418421 2.69069118 7.89584211 2.91622059 9.68893421 2.45785294 9.74610526 2.23336765 7.95301316 0.614985294 8.15363158 0.557558824 7.69834211 2.17594118 7.49772368 1.9525 5.72022368"></polygon>
                                <polygon id="Path" fill="#231F20" fill-rule="nonzero" points="10.9956029 4.59551316 11.218 6.37405263 12.8363824 6.17239474 12.8938088 6.62768421 11.2754265 6.82830263 11.4999118 8.62139474 11.0425882 8.67960526 10.8181029 6.88547368 9.19972059 7.08609211 9.14229412 6.63184211 10.7606765 6.43122368 10.5372353 4.65268421"></polygon>
                                <polygon id="Path" fill="#231F20" fill-rule="nonzero" points="19.5792941 3.52901316 19.8016912 5.30755263 21.4200735 5.10693421 21.4775 5.56118421 19.8591176 5.76180263 20.0836029 7.55593421 19.6262794 7.61310526 19.4017941 5.81897368 17.7823676 6.01959211 17.7259853 5.56534211 19.3443676 5.36472368 19.1209265 3.58618421"></polygon>
                                <polygon id="Path" fill="#231F20" fill-rule="nonzero" points="28.1629853 2.46147368 28.3864265 4.24001316 30.0048088 4.03939474 30.0622353 4.49364474 28.4438529 4.69530263 28.6683382 6.48839474 28.2110147 6.54556579 27.9854853 4.75247368 26.3671029 4.95309211 26.3107206 4.49780263 27.9280588 4.29718421 27.7056618 2.51968421"></polygon>
                                <polygon id="Path" fill="#231F20" fill-rule="nonzero" points="36.7477206 1.39601316 36.9711618 3.17455263 38.5885 2.97393421 38.6459265 3.42818421 37.0275441 3.62880263 37.2530735 5.42189474 36.7947059 5.48010526 36.5702206 3.68597368 34.9518382 3.88659211 34.8944118 3.43234211 36.5127941 3.23172368 36.2893529 1.45318421"></polygon>
                                <polygon id="Path" fill="#231F20" fill-rule="nonzero" points="7.18875 10.7284079 7.41114706 12.5069474 9.02952941 12.3063289 9.08695588 12.7605789 7.46857353 12.9611974 7.69305882 14.7553289 7.23573529 14.8125 7.01125 13.0183684 5.39286765 13.2189868 5.33544118 12.7647368 6.95382353 12.5641184 6.73038235 10.7855789"></polygon>
                                <polygon id="Path" fill="#231F20" fill-rule="nonzero" points="15.7724412 9.66190789 15.9958824 11.4394079 17.6142647 11.2387895 17.6716912 11.6940789 16.0533088 11.8946974 16.2777941 13.6877895 15.8204706 13.7449605 15.5949412 11.9518684 13.9765588 12.1524868 13.9201765 11.6982368 15.5375147 11.4965789 15.3151176 9.71907895"></polygon>
                                <polygon id="Path" fill="#231F20" fill-rule="nonzero" points="24.3561324 8.59540789 24.5795735 10.3739474 26.1969118 10.1733289 26.2543382 10.6275789 24.637 10.8281974 24.8614853 12.6223289 24.4041618 12.6795 24.1786324 10.8853684 22.56025 11.0859868 22.5028235 10.6317368 24.1212059 10.4311184 23.8988088 8.65257895"></polygon>
                                <polygon id="Path" fill="#231F20" fill-rule="nonzero" points="32.9408676 7.52786842 33.1643088 9.30640789 34.7816471 9.10578947 34.8390735 9.56003947 33.2206912 9.76065789 33.4462206 11.5547895 32.9878529 11.6119605 32.7633676 9.81782895 31.1449853 10.0184474 31.0875588 9.56419737 32.7059412 9.36357895 32.4825 7.58503947"></polygon>
                                <polygon id="Path" fill="#231F20" fill-rule="nonzero" points="41.5256029 6.46240789 41.748 8.23990789 43.3663824 8.03928947 43.4238088 8.49457895 41.8054265 8.69519737 42.0309559 10.4882895 41.5725882 10.5454605 41.3481029 8.75236842 39.7286765 8.95298684 39.6722941 8.49873684 41.2906765 8.29707895 41.0672353 6.51957895"></polygon>
                                <polygon id="Path" fill="#231F20" fill-rule="nonzero" points="4.15036765 17.9808158 4.37380882 19.7583158 5.99114706 19.5576974 6.04857353 20.0129868 4.43019118 20.2136053 4.65572059 22.0066974 4.19735294 22.0638684 3.97286765 20.2707763 2.35448529 20.4713947 2.29705882 20.0161053 3.91544118 19.8154868 3.69304412 18.0379868"></polygon>
                                <polygon id="Path" fill="#231F20" fill-rule="nonzero" points="12.7351029 16.9143158 12.9575 18.6928553 14.5758824 18.4922368 14.6333088 18.9464868 13.0149265 19.1471053 13.2404559 20.9412368 12.7820882 20.9984079 12.5576029 19.2042763 10.9392206 19.4048947 10.8817941 18.9506447 12.5001765 18.7500263 12.2767353 16.9714868"></polygon>
                                <polygon id="Path" fill="#231F20" fill-rule="nonzero" points="21.3187941 15.8467763 21.5411912 17.6253158 23.1595735 17.4246974 23.217 17.8789474 21.5986176 18.0795658 21.8241471 19.8736974 21.3657794 19.9308684 21.1412941 18.1367368 19.5229118 18.3373553 19.4654853 17.8831053 21.0838676 17.6824868 20.8604265 15.9039474"></polygon>
                                <polygon id="Path" fill="#231F20" fill-rule="nonzero" points="29.9024853 14.7813158 30.1259265 16.5588158 31.7443088 16.3581974 31.8017353 16.8134868 30.1833529 17.0141053 30.4078382 18.8071974 29.9505147 18.8643684 29.7249853 17.0712763 28.1066029 17.2718947 28.0502206 16.8166053 29.6686029 16.6159868 29.4451618 14.8384868"></polygon>
                                <polygon id="Path" fill="#231F20" fill-rule="nonzero" points="38.4872206 13.7148158 38.7106618 15.4933553 40.328 15.2927368 40.3854265 15.7469868 38.7670441 15.9476053 38.9925735 17.7417368 38.53525 17.7989079 38.3097206 16.0047763 36.6913382 16.2053947 36.6339118 15.7511447 38.2522941 15.5505263 38.0298971 13.7719868"></polygon>
                                <polygon id="Path" fill="#231F20" fill-rule="nonzero" points="8.92825 23.0461711 9.15064706 24.8247105 10.7690294 24.6240921 10.8264559 25.0783421 9.20807353 25.2789605 9.43360294 27.0730921 8.97523529 27.1302632 8.75075 25.3371711 7.13236765 25.5377895 7.07494118 25.0825 8.69332353 24.8818816 8.46988235 23.1043816"></polygon>
                                <polygon id="Path" fill="#231F20" fill-rule="nonzero" points="17.5119412 21.9807105 17.7353824 23.7582105 19.3537647 23.5575921 19.4111912 24.0128816 17.7928088 24.2135 18.0172941 26.0065921 17.5599706 26.0637632 17.3344412 24.2706711 15.7171029 24.4712895 15.6596765 24.0170395 17.2780588 23.8164211 17.0546176 22.0378816"></polygon>
                                <polygon id="Path" fill="#231F20" fill-rule="nonzero" points="26.0956324 20.9131711 26.3190735 22.6917105 27.9364118 22.4910921 27.9938382 22.9453421 26.3765 23.1459605 26.6009853 24.9400921 26.1436618 24.9972632 25.9181324 23.2031316 24.29975 23.40375 24.2423235 22.9495 25.86175 22.7488816 25.6383088 20.9703421"></polygon>
                                <polygon id="Path" fill="#231F20" fill-rule="nonzero" points="34.6803676 19.8466711 34.9038088 21.6252105 36.5211471 21.4245921 36.5785735 21.8788421 34.9601912 22.0794605 35.1857206 23.8735921 34.7283971 23.9307632 34.5028676 22.1376711 32.8844853 22.3382895 32.8270588 21.883 34.4454412 21.6823816 34.2230441 19.9048816"></polygon>
                                <polygon id="Path" fill="#231F20" fill-rule="nonzero" points="43.2651029 18.7812105 43.4875 20.5587105 45.1058824 20.3580921 45.1633088 20.8133816 43.5449265 21.014 43.7704559 22.8070921 43.3120882 22.8642632 43.0876029 21.0711711 41.4692206 21.2717895 41.4117941 20.8175395 43.0301765 20.6169211 42.8067353 18.8383816"></polygon>
                                <polygon id="Path" fill="#231F20" fill-rule="nonzero" points="5.49623529 30.2736316 5.71863235 32.0521711 7.33701471 31.8515526 7.39444118 32.3058026 5.77605882 32.5074605 6.00158824 34.3005526 5.54322059 34.3577237 5.31873529 32.5646316 3.70035294 32.76525 3.64292647 32.3099605 5.26130882 32.1093421 5.03786765 30.3318421"></polygon>
                                <polygon id="Path" fill="#231F20" fill-rule="nonzero" points="14.0799265 29.2081711 14.3033676 30.9867105 15.92175 30.7850526 15.9791765 31.2403421 14.3607941 31.4409605 14.5852794 33.2340526 14.1279559 33.2922632 13.9024265 31.4981316 12.2850882 31.69875 12.2276618 31.2445 13.8460441 31.0438816 13.6226029 29.2653421"></polygon>
                                <polygon id="Path" fill="#231F20" fill-rule="nonzero" points="22.6636176 28.1416711 22.8870588 29.9202105 24.5054412 29.7195921 24.5628676 30.1738421 22.9444853 30.3744605 23.1689706 32.1685921 22.7106029 32.2236842 22.4850735 30.4295526 20.8666912 30.6301711 20.8103088 30.1759211 22.4286912 29.9753026 22.20525 28.1967632"></polygon>
                                <polygon id="Path" fill="#231F20" fill-rule="nonzero" points="31.2483529 27.0741316 31.4717941 28.8526711 33.0901765 28.6520526 33.1455147 29.1052632 31.5281765 29.3069211 31.7526618 31.1000132 31.2953382 31.1571842 31.0698088 29.3640921 29.4514265 29.5647105 29.394 29.1094211 31.0123824 28.9088026 30.7899853 27.1313026"></polygon>
                                <polygon id="Path" fill="#231F20" fill-rule="nonzero" points="39.8330882 26.0086711 40.0554853 27.7872105 41.6738676 27.5865921 41.7312941 28.0408421 40.1129118 28.2414605 40.3384412 30.0345526 39.8800735 30.0927632 39.6555882 28.2986316 38.0372059 28.49925 37.9797794 28.045 39.5981618 27.8443816 39.3747206 26.0658421"></polygon>
                                <polygon id="Path" fill="#231F20" fill-rule="nonzero" points="10.2730735 35.3400263 10.4965147 37.1185658 12.1148971 36.9179474 12.1723235 37.3721974 10.5539412 37.5728158 10.7784265 39.3669474 10.3211029 39.4241184 10.0966176 37.6299868 8.47823529 37.8306053 8.42080882 37.3763553 10.0391912 37.1757368 9.81575 35.3971974"></polygon>
                                <polygon id="Path" fill="#231F20" fill-rule="nonzero" points="18.8578088 34.2745658 19.08125 36.0520658 20.6996324 35.8514474 20.7560147 36.3067368 19.1386765 36.5073553 19.3631618 38.3004474 18.9058382 38.3576184 18.6803088 36.5645263 17.0619265 36.7651447 17.0045 36.3098553 18.6228824 36.1092368 18.4004853 34.3317368"></polygon>
                                <polygon id="Path" fill="#231F20" fill-rule="nonzero" points="27.4415 33.2080658 27.6649412 34.9866053 29.2822794 34.7859868 29.3397059 35.2402368 27.7223676 35.4408553 27.9468529 37.2349868 27.4895294 37.2921579 27.264 35.4980263 25.6456176 35.6986447 25.5881912 35.2443947 27.2065735 35.0437763 26.9841765 33.2652368"></polygon>
                                <polygon id="Path" fill="#231F20" fill-rule="nonzero" points="36.0262353 32.1405263 36.2486324 33.9190658 37.8670147 33.7184474 37.9244412 34.1726974 36.3060588 34.3733158 36.5315882 36.1674474 36.0732206 36.2246184 35.8487353 34.4304868 34.2303529 34.6311053 34.1729265 34.1768553 35.7913088 33.9762368 35.5678676 32.1976974"></polygon>
                                <polygon id="Path" fill="#231F20" fill-rule="nonzero" points="44.6099265 31.0750658 44.8333676 32.8525658 46.45175 32.6519474 46.5091765 33.1072368 44.8907941 33.3078553 45.1152794 35.1009474 44.6579559 35.1581184 44.4334706 33.3650263 42.8140441 33.5656447 42.7576618 33.1113947 44.3760441 32.9097368 44.1526029 31.1322368"></polygon>
                                <polygon id="Path" fill="#231F20" fill-rule="nonzero" points="7.23573529 42.5934737 7.45813235 44.3709737 9.07651471 44.1703553 9.13394118 44.6256447 7.51555882 44.8262632 7.74108824 46.6193553 7.28272059 46.6765263 7.05823529 44.8834342 5.43985294 45.0840526 5.38242647 44.6287632 7.00080882 44.4281447 6.77736765 42.6506447"></polygon>
                                <polygon id="Path" fill="#231F20" fill-rule="nonzero" points="15.8204706 41.5259342 16.0428676 43.3044737 17.66125 43.1038553 17.7186765 43.5581053 16.1002941 43.7587237 16.3247794 45.5528553 15.8674559 45.6100263 15.6429706 43.8158947 14.0245882 44.0165132 13.9671618 43.5622632 15.5855441 43.3616447 15.3621029 41.5831053"></polygon>
                                <polygon id="Path" fill="#231F20" fill-rule="nonzero" points="24.4041618 40.4594342 24.6265588 42.2379737 26.2449412 42.0373553 26.3023676 42.4916053 24.6839853 42.6922237 24.9084706 44.4863553 24.4511471 44.5435263 24.2266618 42.7493947 22.6072353 42.9500132 22.5508529 42.4957632 24.1692353 42.2951447 23.9457941 40.5166053"></polygon>
                                <polygon id="Path" fill="#231F20" fill-rule="nonzero" points="32.9878529 39.3939737 33.2112941 41.1714737 34.8296765 40.9708553 34.8871029 41.4261447 33.2687206 41.6267632 33.4932059 43.4198553 33.0358824 43.4770263 32.8103529 41.6839342 31.1919706 41.8845526 31.1355882 41.4292632 32.7529265 41.2286447 32.5305294 39.4511447"></polygon>
                                <polygon id="Path" fill="#231F20" fill-rule="nonzero" points="41.5725882 38.3264342 41.7960294 40.1049737 43.4133676 39.9043553 43.4707941 40.3586053 41.8524118 40.5592237 42.0779412 42.3533553 41.6195735 42.4105263 41.3950882 40.6163947 39.7767059 40.8170132 39.7192794 40.3627632 41.3376618 40.1621447 41.1152647 38.3836053"></polygon>
                                <polygon id="Path" fill="#231F20" fill-rule="nonzero" points="37.7657353 44.4593289 37.9891765 46.2378684 39.6065147 46.03725 39.6639412 46.4915 38.0455588 46.6921184 38.2710882 48.48625 37.8127206 48.5434211 37.5882353 46.7503289 35.9698529 46.9509474 35.9124265 46.4956579 37.5308088 46.2950395 37.3084118 44.5165"></polygon>
                                <polygon id="Path" fill="#231F20" fill-rule="nonzero" points="46.3504706 43.3928289 46.5728676 45.1703289 48.19125 44.9697105 48.2486765 45.425 46.6302941 45.6256184 46.8558235 47.4187105 46.3974559 47.4758816 46.1729706 45.6827895 44.5535441 45.8834079 44.4971618 45.4291579 46.1155441 45.2285395 45.8921029 43.45"></polygon>
                            </g>
                        </g>
                    </g>
                    <g id="Clipped">
                        <mask id="mask-10" fill="white">
                            <use xlink:href="#path-9"></use>
                        </mask>
                        <g id="SVGID_1_"></g>
                        <g id="Group" mask="url(#mask-10)">
                            <g transform="translate(-25.058824, -7.276316)">
                                <polygon id="Rectangle" fill="none" transform="translate(24.296321, 26.844052) rotate(172.888486) translate(-24.296321, -26.844052) " points="2.96939052 3.37368304 45.5975038 3.39697655 45.6232521 50.31442 2.99513889 50.2911265"></polygon>
                                <polygon id="Path" fill="#231F20" fill-rule="nonzero" points="2.30123529 5.94475 2.52363235 7.72225 4.14201471 7.52163158 4.19839706 7.97588158 2.58105882 8.1765 2.80554412 9.96959211 2.34717647 10.0267632 2.12269118 8.23367105 0.504308824 8.43428947 0.446882353 7.98003947 2.06526471 7.77942105 1.84286765 6.00088158"></polygon>
                                <polygon id="Path" fill="#231F20" fill-rule="nonzero" points="10.8849265 4.87825 11.1073235 6.65575 12.7257059 6.45513158 12.7831324 6.90938158 11.16475 7.11 11.3892353 8.90309211 10.9308676 8.96026316 10.7063824 7.16717105 9.088 7.36778947 9.03161765 6.91353947 10.6489559 6.71292105 10.4265588 4.93542105"></polygon>
                                <polygon id="Path" fill="#231F20" fill-rule="nonzero" points="19.4696618 3.81071053 19.6920588 5.58925 21.3104412 5.38863158 21.3668235 5.84288158 19.7494853 6.0435 19.9739706 7.83763158 19.5156029 7.89480263 19.2911176 6.10171053 17.6727353 6.30232895 17.6153088 5.84807895 19.2336912 5.64746053 19.0112941 3.86892105"></polygon>
                                <polygon id="Path" fill="#231F20" fill-rule="nonzero" points="28.0533529 2.74421053 28.27575 4.52171053 29.8941324 4.32109211 29.9515588 4.77534211 28.3331765 4.97596053 28.5587059 6.76905263 28.1003382 6.82622368 27.8758529 5.03313158 26.2574706 5.23375 26.2000441 4.7795 27.8184265 4.57888158 27.5949853 2.80034211"></polygon>
                                <polygon id="Path" fill="#231F20" fill-rule="nonzero" points="36.6370441 1.67875 36.8604853 3.45625 38.4788676 3.25563158 38.53525 3.70988158 36.9179118 3.9105 37.1423971 5.70359211 36.6850735 5.76076316 36.4595441 3.96767105 34.8422059 4.16828947 34.7847794 3.71403947 36.4031618 3.51342105 36.1797206 1.73592105"></polygon>
                                <polygon id="Path" fill="#231F20" fill-rule="nonzero" points="7.07911765 11.0111447 7.30151471 12.7886447 8.91989706 12.5880263 8.97732353 13.0422763 7.35894118 13.2428947 7.58342647 15.0359868 7.12505882 15.0931579 6.90057353 13.3000658 5.28219118 13.5006842 5.22580882 13.0464342 6.84419118 12.8458158 6.62075 11.0683158"></polygon>
                                <polygon id="Path" fill="#231F20" fill-rule="nonzero" points="15.6628088 9.94360526 15.88625 11.7221447 17.5035882 11.5215263 17.5610147 11.9757763 15.9426324 12.1763947 16.1671176 13.9705263 15.7097941 14.0276974 15.4853088 12.2346053 13.8669265 12.4352237 13.8095 11.9809737 15.4278824 11.7803553 15.2054853 10.0018158"></polygon>
                                <polygon id="Path" fill="#231F20" fill-rule="nonzero" points="24.2475441 8.87710526 24.4699412 10.6546053 26.0883235 10.4539868 26.14575 10.9082368 24.5273676 11.1088553 24.7528971 12.9019474 24.2945294 12.9591184 24.0700441 11.1660263 22.4516618 11.3666447 22.3952794 10.9123947 24.0136618 10.7117763 23.7912647 8.93323684"></polygon>
                                <polygon id="Path" fill="#231F20" fill-rule="nonzero" points="32.8312353 7.81060526 33.0546765 9.58810526 34.6730588 9.38748684 34.7304853 9.84173684 33.1121029 10.0423553 33.3365882 11.8354474 32.8792647 11.8926184 32.6537353 10.0995263 31.0363971 10.3001447 30.9789706 9.84589474 32.5973529 9.64527632 32.3739118 7.86777632"></polygon>
                                <polygon id="Path" fill="#231F20" fill-rule="nonzero" points="41.4149265 6.74410526 41.6383676 8.52264474 43.25675 8.32202632 43.3141765 8.77627632 41.6957941 8.97689474 41.9202794 10.7710263 41.4629559 10.8281974 41.2374265 9.03510526 39.6190441 9.23572368 39.5616176 8.78147368 41.18 8.58085526 40.9576029 6.80231579"></polygon>
                                <polygon id="Path" fill="#231F20" fill-rule="nonzero" points="4.04073529 18.2625132 4.26313235 20.0410526 5.88151471 19.8404342 5.93894118 20.2946842 4.32055882 20.4953026 4.54504412 22.2883947 4.08667647 22.3455658 3.86219118 20.5524737 2.24380882 20.7541316 2.18742647 20.2998816 3.80476471 20.0992632 3.58236765 18.3207237"></polygon>
                                <polygon id="Path" fill="#231F20" fill-rule="nonzero" points="12.6244265 17.1960132 12.8478676 18.9735132 14.4652059 18.7728947 14.5226324 19.2271447 12.90425 19.4277632 13.1287353 21.2208553 12.6703676 21.2780263 12.4458824 19.4849342 10.8285441 19.6855526 10.7711176 19.2313026 12.3895 19.0296447 12.1660588 17.2521447"></polygon>
                                <polygon id="Path" fill="#231F20" fill-rule="nonzero" points="21.2091618 16.1295132 21.4315588 17.9080526 23.0499412 17.7074342 23.1063235 18.1616842 21.4889853 18.3623026 21.7134706 20.1553947 21.2551029 20.2125658 21.0306176 18.4194737 19.4122353 18.6200921 19.3548088 18.1658421 20.9731912 17.9652237 20.74975 16.1877237"></polygon>
                                <polygon id="Path" fill="#231F20" fill-rule="nonzero" points="29.7928529 15.0630132 30.01525 16.8415526 31.6336324 16.6398947 31.6910588 17.0941447 30.0726765 17.2947632 30.2982059 19.0878553 29.8398382 19.1450263 29.6153529 17.3508947 27.9969706 17.5515132 27.9395441 17.0972632 29.5579265 16.8966447 29.3344853 15.1181053"></polygon>
                                <polygon id="Path" fill="#231F20" fill-rule="nonzero" points="38.3775882 13.9965132 38.5999853 15.7740132 40.2183676 15.5733947 40.2757941 16.0276447 38.6574118 16.2282632 38.8818971 18.0213553 38.4245735 18.0785263 38.2000882 16.2854342 36.5817059 16.4860526 36.5242794 16.0318026 38.1426618 15.8301447 37.9192206 14.0526447"></polygon>
                                <polygon id="Path" fill="#231F20" fill-rule="nonzero" points="8.81861765 23.3289079 9.04101471 25.1074474 10.6593971 24.9068289 10.7168235 25.3610789 9.09844118 25.5616974 9.32292647 27.3558289 8.86455882 27.413 8.64007353 25.6199079 7.02273529 25.8205263 6.96530882 25.3652368 8.58369118 25.1646184 8.36025 23.3871184"></polygon>
                                <polygon id="Path" fill="#231F20" fill-rule="nonzero" points="17.4023088 22.2624079 17.6247059 24.0399079 19.2430882 23.8392895 19.2994706 24.2945789 17.6821324 24.4951974 17.9066176 26.2882895 17.4492941 26.3454605 17.2248088 24.5523684 15.6064265 24.7529868 15.549 24.2987368 17.1673824 24.0981184 16.9449853 22.3195789"></polygon>
                                <polygon id="Path" fill="#231F20" fill-rule="nonzero" points="25.9870441 21.1959079 26.2094412 22.9744474 27.8278235 22.7738289 27.88525 23.2280789 26.2668676 23.4286974 26.4923971 25.2228289 26.0340294 25.28 25.8095441 23.4858684 24.1911618 23.6864868 24.1337353 23.2322368 25.7521176 23.0316184 25.5286765 21.2530789"></polygon>
                                <polygon id="Path" fill="#231F20" fill-rule="nonzero" points="34.5707353 20.1294079 34.7941765 21.9069079 36.4125588 21.7062895 36.4699853 22.1605395 34.8516029 22.3611579 35.0760882 24.1552895 34.6187647 24.2124605 34.3942794 22.4193684 32.7758971 22.6199868 32.7184706 22.1646974 34.3368529 21.9640789 34.1134118 20.1865789"></polygon>
                                <polygon id="Path" fill="#231F20" fill-rule="nonzero" points="43.1544265 19.0629079 43.3778676 20.8404079 44.99625 20.6397895 45.0536765 21.0940395 43.4352941 21.2956974 43.6597794 23.0887895 43.2024559 23.1459605 42.9769265 21.3528684 41.3585441 21.5534868 41.3011176 21.0992368 42.9195 20.8986184 42.6971029 19.1211184"></polygon>
                                <polygon id="Path" fill="#231F20" fill-rule="nonzero" points="5.38660294 30.5563684 5.609 32.3349079 7.22738235 32.1342895 7.28376471 32.5885395 5.66538235 32.7901974 5.88986765 34.5832895 5.43254412 34.6404605 5.20805882 32.8473684 3.58967647 33.0479868 3.53225 32.5926974 5.15063235 32.3920789 4.92823529 30.6145789"></polygon>
                                <polygon id="Path" fill="#231F20" fill-rule="nonzero" points="13.9702941 29.4898684 14.1926912 31.2684079 15.8110735 31.06675 15.8685 31.5220395 14.2501176 31.7226579 14.4746029 33.51575 14.0162353 33.5739605 13.79175 31.7798289 12.1733676 31.9804474 12.1169853 31.5261974 13.7343235 31.3255789 13.5119265 29.5470395"></polygon>
                                <polygon id="Path" fill="#231F20" fill-rule="nonzero" points="22.5550294 28.4233684 22.7774265 30.2019079 24.3947647 30.0012895 24.4521912 30.4555395 22.8348529 30.6561579 23.0593382 32.4502895 22.6009706 32.5074605 22.3764853 30.7133289 20.7581029 30.9139474 20.7006765 30.4596974 22.3190588 30.2590789 22.0966618 28.4805395"></polygon>
                                <polygon id="Path" fill="#231F20" fill-rule="nonzero" points="31.1387206 27.3568684 31.3611176 29.1354079 32.9795 28.9347895 33.0369265 29.3890395 31.4185441 29.5906974 31.6440735 31.3837895 31.1857059 31.4409605 30.9612206 29.6478684 29.3428382 29.8484868 29.2854118 29.3931974 30.9037941 29.1925789 30.6803529 27.4150789"></polygon>
                                <polygon id="Path" fill="#231F20" fill-rule="nonzero" points="39.7224118 26.2903684 39.9458529 28.0689079 41.5642353 27.8682895 41.6206176 28.3225395 40.0032794 28.5231579 40.2277647 30.31625 39.7704412 30.3744605 39.5449118 28.5803289 37.9275735 28.7809474 37.8701471 28.3266974 39.4885294 28.1260789 39.2650882 26.3475395"></polygon>
                                <polygon id="Path" fill="#231F20" fill-rule="nonzero" points="10.1644853 35.6227632 10.3868824 37.4013026 12.0052647 37.2006842 12.0626912 37.6549342 10.4443088 37.8555526 10.6687941 39.6496842 10.2104265 39.7068553 9.98594118 37.9127237 8.36755882 38.1133421 8.31117647 37.6590921 9.92851471 37.4584737 9.70611765 35.6799342"></polygon>
                                <polygon id="Path" fill="#231F20" fill-rule="nonzero" points="18.7481765 34.5562632 18.9705735 36.3337632 20.5889559 36.1331447 20.6463824 36.5884342 19.028 36.7890526 19.2524853 38.5821447 18.7941176 38.6382763 18.5696324 36.8451842 16.9522941 37.0458026 16.8948676 36.5905132 18.51325 36.3898947 18.2908529 34.6123947"></polygon>
                                <polygon id="Path" fill="#231F20" fill-rule="nonzero" points="27.3329118 33.4897632 27.5553088 35.2683026 29.1736912 35.0676842 29.2311176 35.5219342 27.6127353 35.7225526 27.8382647 37.5166842 27.3798971 37.5738553 27.1554118 35.7797237 25.5370294 35.9803421 25.4796029 35.5260921 27.0979853 35.3254737 26.8745441 33.5469342"></polygon>
                                <polygon id="Path" fill="#231F20" fill-rule="nonzero" points="35.9166029 32.4232632 36.1400441 34.2018026 37.7584265 34.0011842 37.8158529 34.4554342 36.1974706 34.6560526 36.4219559 36.4501842 35.9646324 36.5073553 35.7391029 34.7132237 34.1207206 34.9138421 34.0643382 34.4595921 35.6827206 34.2589737 35.4592794 32.4804342"></polygon>
                                <polygon id="Path" fill="#231F20" fill-rule="nonzero" points="44.5002941 31.3567632 44.7237353 33.1342632 46.3421176 32.9336447 46.3995441 33.3889342 44.7801176 33.5895526 45.0056471 35.3826447 44.5483235 35.4398158 44.3227941 33.6467237 42.7044118 33.8473421 42.6469853 33.3930921 44.2653676 33.1914342 44.0429706 31.4139342"></polygon>
                                <polygon id="Path" fill="#231F20" fill-rule="nonzero" points="7.12610294 42.8751711 7.3485 44.6526711 8.96688235 44.4520526 9.02326471 44.9073421 7.40592647 45.1079605 7.63041176 46.9010526 7.17204412 46.9582237 6.94755882 45.1651316 5.32917647 45.36575 5.27175 44.9104605 6.89013235 44.7098421 6.66773529 42.9323421"></polygon>
                                <polygon id="Path" fill="#231F20" fill-rule="nonzero" points="15.7097941 41.8086711 15.9321912 43.5872105 17.5505735 43.3865921 17.608 43.8408421 15.9896176 44.0414605 16.2141029 45.8355921 15.7557353 45.8927632 15.53125 44.0986316 13.9128676 44.29925 13.8564853 43.845 15.4748676 43.6443816 15.2514265 41.8658421"></polygon>
                                <polygon id="Path" fill="#231F20" fill-rule="nonzero" points="24.2945294 40.7421711 24.5179706 42.5207105 26.1353088 42.3200921 26.1927353 42.7743421 24.5743529 42.9749605 24.7998824 44.7690921 24.3425588 44.8262632 24.1170294 43.0321316 22.4986471 43.23275 22.4412206 42.7785 24.0596029 42.5778816 23.8361618 40.7993421"></polygon>
                                <polygon id="Path" fill="#231F20" fill-rule="nonzero" points="32.8792647 39.6756711 33.1016618 41.4531711 34.7200441 41.2525526 34.7774706 41.7078421 33.1590882 41.9084605 33.3846176 43.7015526 32.92625 43.7587237 32.7017647 41.9656316 31.0833824 42.16625 31.0259559 41.7109605 32.6443382 41.5103421 32.4208971 39.7328421"></polygon>
                                <polygon id="Path" fill="#231F20" fill-rule="nonzero" points="41.4619118 38.6091711 41.6853529 40.3877105 43.3037353 40.1870921 43.3601176 40.6413421 41.7427794 40.8419605 41.9672647 42.6360921 41.5099412 42.6932632 41.2844118 40.8991316 39.6670735 41.09975 39.6096471 40.6455 41.2280294 40.4448816 41.0045882 38.6663421"></polygon>
                                <polygon id="Path" fill="#231F20" fill-rule="nonzero" points="11.9039853 47.9405263 12.1263824 49.7190658 13.7447647 49.5184474 13.8021912 49.9726974 12.1838088 50.1733158 12.4082941 51.9674474 11.9499265 52.0246184 11.7254412 50.2315263 10.1070588 50.4321447 10.0506765 49.9768553 11.6690588 49.7762368 11.4456176 47.9976974"></polygon>
                                <polygon id="Path" fill="#231F20" fill-rule="nonzero" points="20.4876765 46.8750658 20.7111176 48.6525658 22.3284559 48.4519474 22.3858824 48.9072368 20.7675 49.1078553 20.9919853 50.9009474 20.5346618 50.9581184 20.3101765 49.1650263 18.6917941 49.3656447 18.6343676 48.9113947 20.25275 48.7107763 20.0303529 46.9322368"></polygon>
                                <polygon id="Path" fill="#231F20" fill-rule="nonzero" points="29.0724118 45.8085658 29.2948088 47.5871053 30.9131912 47.3864868 30.9706176 47.8407368 29.3522353 48.0413553 29.5777647 49.8354868 29.1193971 49.8926579 28.8949118 48.0985263 27.2765294 48.2991447 27.2191029 47.8448947 28.8374853 47.6442763 28.6140441 45.8657368"></polygon>
                                <polygon id="Path" fill="#231F20" fill-rule="nonzero" points="37.6561029 44.7410263 37.8795441 46.5195658 39.4979265 46.3189474 39.5553529 46.7731974 37.9369706 46.9738158 38.1614559 48.7679474 37.7041324 48.8251184 37.4786029 47.0320263 35.8612647 47.2326447 35.8038382 46.7773553 37.4222206 46.5767368 37.1987794 44.7981974"></polygon>
                                <polygon id="Path" fill="#231F20" fill-rule="nonzero" points="46.2397941 43.6755658 46.4632353 45.4530658 48.0816176 45.2524474 48.1390441 45.7077368 46.5206618 45.9083553 46.7451471 47.7014474 46.2878235 47.7586184 46.0622941 45.9655263 44.4439118 46.1661447 44.3864853 45.7118947 46.0048676 45.5112763 45.7824706 43.7327368"></polygon>
                            </g>
                        </g>
                    </g>
                    <g id="Clipped">
                        <mask id="mask-12" fill="white">
                            <use xlink:href="#path-11"></use>
                        </mask>
                        <g id="SVGID_1_"></g>
                        <g id="Group" mask="url(#mask-12)">
                            <g transform="translate(-19.838235, 39.500000)">
                                <polygon id="Rectangle" fill="none" transform="translate(24.914706, 26.618719) rotate(172.888486) translate(-24.914706, -26.618719) " points="3.58829764 3.148351 46.2153668 3.17164394 46.2411152 50.0890874 3.61404601 50.0657944"></polygon>
                                <polygon id="Path" fill="#231F20" fill-rule="nonzero" points="2.91622059 5.72022368 3.13861765 7.49876316 4.757 7.29814474 4.81338235 7.75239474 3.19604412 7.95405263 3.42052941 9.74714474 2.96216176 9.80431579 2.73767647 8.01122368 1.11929412 8.21184211 1.06186765 7.75655263 2.68025 7.55593421 2.45785294 5.77843421"></polygon>
                                <polygon id="Path" fill="#231F20" fill-rule="nonzero" points="11.4999118 4.65476316 11.7223088 6.43330263 13.3406912 6.23164474 13.3981176 6.68693421 11.7797353 6.88755263 12.0042206 8.68064474 11.5458529 8.73885526 11.3213676 6.94472368 9.70298529 7.14534211 9.64660294 6.69109211 11.2639412 6.49047368 11.0415441 4.71193421"></polygon>
                                <polygon id="Path" fill="#231F20" fill-rule="nonzero" points="20.0856912 3.58722368 20.3080882 5.36576316 21.9264706 5.16514474 21.9838971 5.61939474 20.3655147 5.82001316 20.59 7.61414474 20.1326765 7.67131579 19.9081912 5.87718421 18.2898088 6.07780263 18.2323824 5.62355263 19.8507647 5.42293421 19.6273235 3.64439474"></polygon>
                                <polygon id="Path" fill="#231F20" fill-rule="nonzero" points="28.6683382 2.52072368 28.8917794 4.29926316 30.5101618 4.09864474 30.5675882 4.55289474 28.9492059 4.75455263 29.1736912 6.54764474 28.7163676 6.60481579 28.4908382 4.81172368 26.8724559 5.01234211 26.8160735 4.55705263 28.4334118 4.35643421 28.2110147 2.57893421"></polygon>
                                <polygon id="Path" fill="#231F20" fill-rule="nonzero" points="37.2530735 1.45526316 37.4765147 3.23380263 39.0938529 3.03318421 39.1512794 3.48743421 37.5328971 3.68805263 37.7584265 5.48114474 37.3000588 5.53935526 37.0755735 3.74522368 35.4571912 3.94584211 35.3997647 3.49159211 37.0181471 3.29097368 36.7947059 1.51243421"></polygon>
                                <polygon id="Path" fill="#231F20" fill-rule="nonzero" points="7.69410294 10.7866184 7.9165 12.5651579 9.53488235 12.3645395 9.59230882 12.8187895 7.97392647 13.0194079 8.19841176 14.8135395 7.74004412 14.8707105 7.51555882 13.0765789 5.89717647 13.2771974 5.84079412 12.8229474 7.45917647 12.6223289 7.23573529 10.8437895"></polygon>
                                <polygon id="Path" fill="#231F20" fill-rule="nonzero" points="16.2777941 9.72115789 16.5012353 11.4986579 18.1185735 11.2980395 18.176 11.7533289 16.5576176 11.9539474 16.7821029 13.7470395 16.3247794 13.8042105 16.1002941 12.0111184 14.4819118 12.2117368 14.4244853 11.7574868 16.0428676 11.5558289 15.8204706 9.77832895"></polygon>
                                <polygon id="Path" fill="#231F20" fill-rule="nonzero" points="24.8625294 8.65361842 25.0859706 10.4321579 26.7033088 10.2315395 26.7607353 10.6857895 25.1433971 10.8864079 25.3678824 12.6805395 24.9105588 12.7377105 24.6850294 10.9435789 23.0666471 11.1441974 23.0092206 10.6899474 24.6276029 10.4893289 24.4052059 8.71078947"></polygon>
                                <polygon id="Path" fill="#231F20" fill-rule="nonzero" points="33.4462206 7.58711842 33.6696618 9.36565789 35.287 9.16503947 35.3444265 9.61928947 33.7260441 9.81990789 33.9515735 11.6140395 33.4932059 11.6712105 33.2687206 9.87707895 31.6503382 10.0776974 31.5929118 9.62344737 33.2112941 9.42282895 32.9878529 7.64428947"></polygon>
                                <polygon id="Path" fill="#231F20" fill-rule="nonzero" points="42.0309559 6.52165789 42.2533529 8.29915789 43.8717353 8.09853947 43.9291618 8.55382895 42.3107794 8.75444737 42.5363088 10.5475395 42.0779412 10.6047105 41.8534559 8.81161842 40.2340294 9.01223684 40.1776471 8.55798684 41.7960294 8.35632895 41.5725882 6.57882895"></polygon>
                                <polygon id="Path" fill="#231F20" fill-rule="nonzero" points="4.65572059 18.0400658 4.87811765 19.8175658 6.4965 19.6169474 6.55392647 20.0722368 4.93554412 20.2728553 5.16002941 22.0659474 4.70166176 22.1231184 4.47717647 20.3300263 2.85879412 20.5306447 2.80241176 20.0753553 4.41975 19.8747368 4.19735294 18.0972368"></polygon>
                                <polygon id="Path" fill="#231F20" fill-rule="nonzero" points="13.2394118 16.9725263 13.4628529 18.7510658 15.0801912 18.5504474 15.1376176 19.0046974 13.5192353 19.2053158 13.7437206 20.9994474 13.2853529 21.0566184 13.0608676 19.2624868 11.4435294 19.4631053 11.3861029 19.0088553 13.0044853 18.8082368 12.7810441 17.0296974"></polygon>
                                <polygon id="Path" fill="#231F20" fill-rule="nonzero" points="21.8251912 15.9060263 22.0475882 17.6845658 23.6659706 17.4839474 23.7233971 17.9381974 22.1050147 18.1388158 22.3305441 19.9329474 21.8721765 19.9901184 21.6476912 18.1959868 20.0293088 18.3966053 19.9718824 17.9423553 21.5902647 17.7417368 21.3668235 15.9631974"></polygon>
                                <polygon id="Path" fill="#231F20" fill-rule="nonzero" points="30.4078382 14.8405658 30.6312794 16.6180658 32.2496618 16.4174474 32.3070882 16.8727368 30.6887059 17.0733553 30.9131912 18.8664474 30.4558676 18.9236184 30.2303382 17.1305263 28.6119559 17.3311447 28.5555735 16.8758553 30.1739559 16.6752368 29.9505147 14.8977368"></polygon>
                                <polygon id="Path" fill="#231F20" fill-rule="nonzero" points="38.9925735 13.7730263 39.2160147 15.5515658 40.8333529 15.3509474 40.8907794 15.8051974 39.2723971 16.0058158 39.4979265 17.7999474 39.0406029 17.8571184 38.8150735 16.0629868 37.1966912 16.2636053 37.1392647 15.8093553 38.7576471 15.6087368 38.53525 13.8301974"></polygon>
                                <polygon id="Path" fill="#231F20" fill-rule="nonzero" points="9.43360294 23.1054211 9.656 24.8839605 11.2743824 24.6833421 11.3318088 25.1375921 9.71342647 25.3382105 9.93791176 27.1323421 9.47954412 27.1895132 9.25505882 25.3964211 7.63772059 25.5970395 7.58029412 25.14175 9.19867647 24.9411316 8.97523529 23.1636316"></polygon>
                                <polygon id="Path" fill="#231F20" fill-rule="nonzero" points="18.0183382 22.0389211 18.2407353 23.8164211 19.8591176 23.6158026 19.9165441 24.0710921 18.2981618 24.2717105 18.5226471 26.0648026 18.0653235 26.1219737 17.8408382 24.3288816 16.2224559 24.5295 16.1650294 24.07525 17.7834118 23.8746316 17.5610147 22.0960921"></polygon>
                                <polygon id="Path" fill="#231F20" fill-rule="nonzero" points="26.6020294 20.9724211 26.8254706 22.7509605 28.4428088 22.5503421 28.5002353 23.0045921 26.8828971 23.2052105 27.1073824 24.9993421 26.6500588 25.0565132 26.4245294 23.2623816 24.8061471 23.463 24.7487206 23.00875 26.3681471 22.8081316 26.1447059 21.0295921"></polygon>
                                <polygon id="Path" fill="#231F20" fill-rule="nonzero" points="35.1857206 19.9059211 35.4091618 21.6844605 37.0265 21.4838421 37.0839265 21.9380921 35.4655441 22.1387105 35.6910735 23.9328421 35.23375 23.9900132 35.0082206 22.1969211 33.3898382 22.3975395 33.3324118 21.94225 34.9507941 21.7416316 34.7283971 19.9641316"></polygon>
                                <polygon id="Path" fill="#231F20" fill-rule="nonzero" points="43.7704559 18.8394211 43.9928529 20.6169211 45.6112353 20.4163026 45.6686618 20.8715921 44.0502794 21.0722105 44.2758088 22.8653026 43.8174412 22.9224737 43.5929559 21.1293816 41.9745735 21.33 41.9171471 20.87575 43.5355294 20.6751316 43.3120882 18.8965921"></polygon>
                                <polygon id="Path" fill="#231F20" fill-rule="nonzero" points="6.00158824 30.3328816 6.22398529 32.1114211 7.84236765 31.9108026 7.89875 32.3650526 6.28036765 32.5667105 6.50485294 34.3598026 6.04752941 34.4169737 5.82304412 32.6238816 4.20466176 32.8245 4.14723529 32.3692105 5.76561765 32.1685921 5.54322059 30.3910921"></polygon>
                                <polygon id="Path" fill="#231F20" fill-rule="nonzero" points="14.5852794 29.2674211 14.8076765 31.0459605 16.4260588 30.8443026 16.4834853 31.2995921 14.8651029 31.5002105 15.0895882 33.2933026 14.6312206 33.3515132 14.4067353 31.5573816 12.7883529 31.758 12.7319706 31.30375 14.3493088 31.1031316 14.1269118 29.3245921"></polygon>
                                <polygon id="Path" fill="#231F20" fill-rule="nonzero" points="23.1700147 28.1998816 23.3934559 29.9784211 25.0118382 29.7778026 25.0692647 30.2320526 23.4508824 30.4326711 23.6753676 32.2268026 23.2180441 32.2839737 22.9925147 30.4898421 21.3741324 30.6904605 21.31775 30.2362105 22.9361324 30.0355921 22.7126912 28.2570526"></polygon>
                                <polygon id="Path" fill="#231F20" fill-rule="nonzero" points="31.7537059 27.1333816 31.9771471 28.9119211 33.5955294 28.7113026 33.6519118 29.1655526 32.0345735 29.3672105 32.2590588 31.1603026 31.8017353 31.2174737 31.5762059 29.4243816 29.9578235 29.625 29.9003971 29.1697105 31.5187794 28.9690921 31.2963824 27.1915921"></polygon>
                                <polygon id="Path" fill="#231F20" fill-rule="nonzero" points="40.3384412 26.0668816 40.5608382 27.8454211 42.1792206 27.6448026 42.2366471 28.0990526 40.6182647 28.2996711 40.8437941 30.0927632 40.3854265 30.1509737 40.1609412 28.3568421 38.5425588 28.5574605 38.4851324 28.1032105 40.1035147 27.9025921 39.8800735 26.1240526"></polygon>
                                <polygon id="Path" fill="#231F20" fill-rule="nonzero" points="10.7794706 35.3992763 11.0018676 37.1778158 12.62025 36.9771974 12.6776765 37.4314474 11.0592941 37.6320658 11.2837794 39.4261974 10.8254118 39.4833684 10.6009265 37.6892368 8.98254412 37.8898553 8.92616176 37.4356053 10.5435 37.2349868 10.3211029 35.4564474"></polygon>
                                <polygon id="Path" fill="#231F20" fill-rule="nonzero" points="19.3631618 34.3338158 19.5866029 36.1113158 21.2049853 35.9106974 21.2613676 36.3659868 19.6440294 36.5666053 19.8685147 38.3596974 19.4111912 38.4168684 19.1856618 36.6237763 17.5683235 36.8243947 17.5108971 36.3691053 19.1282353 36.1684868 18.9058382 34.3909868"></polygon>
                                <polygon id="Path" fill="#231F20" fill-rule="nonzero" points="27.9478971 33.2662763 28.1713382 35.0448158 29.7886765 34.8441974 29.8461029 35.2984474 28.2287647 35.4990658 28.45325 37.2931974 27.9959265 37.3503684 27.7703971 35.5562368 26.1520147 35.7568553 26.0945882 35.3026053 27.7129706 35.1019868 27.4905735 33.3234474"></polygon>
                                <polygon id="Path" fill="#231F20" fill-rule="nonzero" points="36.5326324 32.1997763 36.7550294 33.9783158 38.3734118 33.7776974 38.4308382 34.2319474 36.8124559 34.4325658 37.0379853 36.2266974 36.5796176 36.2838684 36.3551324 34.4897368 34.73675 34.6903553 34.6793235 34.2361053 36.2977059 34.0354868 36.0742647 32.2569474"></polygon>
                                <polygon id="Path" fill="#231F20" fill-rule="nonzero" points="45.1152794 31.1332763 45.3387206 32.9107763 46.9571029 32.7101579 47.0145294 33.1654474 45.3961471 33.3660658 45.6206324 35.1591579 45.1633088 35.2163289 44.9388235 33.4232368 43.3193971 33.6238553 43.2630147 33.1696053 44.8813971 32.9679474 44.6579559 31.1904474"></polygon>
                                <polygon id="Path" fill="#231F20" fill-rule="nonzero" points="33.4932059 39.4521842 33.7166471 41.2296842 35.3350294 41.0290658 35.3924559 41.4843553 33.7740735 41.6849737 33.9985588 43.4780658 33.5412353 43.5352368 33.3157059 41.7421447 31.6973235 41.9427632 31.6409412 41.4874737 33.2582794 41.2868553 33.0358824 39.5093553"></polygon>
                                <polygon id="Path" fill="#231F20" fill-rule="nonzero" points="42.0779412 38.3856842 42.3013824 40.1642237 43.9187206 39.9636053 43.9761471 40.4178553 42.3577647 40.6184737 42.5832941 42.4126053 42.1249265 42.4697763 41.9004412 40.6756447 40.2820588 40.8762632 40.2246324 40.4220132 41.8430147 40.2213947 41.6206176 38.4428553"></polygon>
                            </g>
                        </g>
                    </g>
                </g>
                <circle id="Oval" fill="#FFFFFF" fill-rule="nonzero" cx="49.5" cy="64.5" r="49.5"></circle>
                <path d="M49.3803106,100 C48.6356691,100 47.9148809,99.9782693 47.2189833,99.9317037 C39.1492671,99.4039592 31.0038423,94.1172016 26.0734439,89.3488752 C21.513292,84.9323785 18.2515959,77.5884523 17.3441288,69.7022945 C16.8452812,65.3323635 16.8805428,62.8933563 17.503843,58.8235153 C18.1707017,53.8616827 18.8769704,52.1615177 21.3328357,48.045111 C22.4425383,46.1711008 23.4194915,44.6230504 25.0052254,43.2291842 C25.5870415,42.720066 26.2362694,42.0464157 26.9186847,41.3437912 C28.3073686,39.9106029 29.8796202,38.2880474 31.3917197,37.4571086 L32.1425839,37.0411218 C35.8543837,34.9715357 39.3608366,33.0168116 43.8701703,31.9778794 C48.1025969,31 50.6497275,31 54.871783,31 C65.8692473,31.0062088 77.8032177,41.0747451 82.0501638,50.4706659 C82.7336162,51.9762897 83.421217,54.7609178 83.9771054,56.9971056 C84.1720812,57.7773395 84.3452778,58.4789292 84.485287,58.9942561 C85.0110993,60.9365627 85.0048767,64.0223155 84.9986541,66.2740252 L84.9986541,66.8866227 C84.9986541,70.8115927 84.6978935,73.8859628 83.2054991,77.075195 L82.8435493,77.8471506 C82.2482509,79.114772 81.6415443,80.4082633 81.1188433,81.685198 C80.3648677,83.5260948 79.343319,84.9189262 78.042789,86.4473155 C76.2610422,88.5375975 74.417069,90.6941062 72.1012129,92.7026395 C65.9107316,98.0877025 55.9949681,100 49.3803106,100 Z M54.8728202,33.50006 C50.6932859,33.50006 48.3919493,33.50006 44.4312443,34.4117127 C40.2755635,35.369931 37.0719453,37.1539142 33.365331,39.2183263 L32.6092813,39.6384523 C31.4207587,40.2976155 29.9885163,41.7763347 28.7211736,43.0822436 C27.9869031,43.8397121 27.2889313,44.5619976 26.6625197,45.1052639 C25.3536928,46.2611278 24.5208973,47.5794541 23.4879404,49.3189412 C21.2104573,53.1425015 20.6120475,54.5136023 19.9887472,59.1753449 C19.3975972,63.0154619 19.365447,65.3064937 19.8362928,69.4135873 C20.6804965,76.7461308 23.6642483,83.5291992 27.8209663,87.5504049 C33.6121621,93.154844 41.2940008,97.0332484 47.3828459,97.4337133 C48.0227398,97.4782094 48.6916727,97.4968356 49.3803106,97.4968356 C55.5604209,97.4968356 64.7875465,95.744931 70.4584382,90.8131074 C72.6332479,88.9235753 74.4118835,86.8415717 76.1355524,84.82476 C77.3116298,83.440207 78.170353,82.2739952 78.800913,80.7362927 C79.3360593,79.4210708 79.9614338,78.0882573 80.5764372,76.7833833 L80.9363127,76.0134973 C82.2378798,73.2319736 82.4919706,70.5622076 82.4919706,66.8845531 L82.4919706,66.2657469 C82.4992304,64.2758398 82.5064901,61.2656269 82.0688317,59.6492801 C81.9257112,59.1215357 81.7452548,58.4023545 81.5461306,57.5983203 C81.0452088,55.5711608 80.3544967,52.7958458 79.7654209,51.4982154 C75.9198345,42.9911818 64.752285,33.5062687 54.8728202,33.50006 Z" id="Shape" fill="#231F20" fill-rule="nonzero"></path>
                <path d="M62.498773,27 C60.9951665,27 59.5105397,26.8144879 58.11343,26.4540041 C54.7772373,25.6033889 51.6835618,21.879444 50.4203637,19.5816234 C49.2141044,17.4134506 48.4507026,13.0560239 49.4861454,10.2143156 C49.9374382,6.51882995 53.9737674,2.62834574 56.3767962,1.34346352 C59.5695874,-0.354604769 64.2206448,-0.252362296 67.4187082,0.600361011 C71.5646973,1.70394729 74.1332704,5.36781159 75.5145638,7.33255355 C77.8648714,10.6844202 77.149973,16.3741611 75.2846997,20.0306471 C72.812079,24.8760971 67.570545,27 62.498773,27 Z M51.8933919,11.0438499 C51.1763846,12.8599714 51.6308407,16.5132952 52.6494128,18.3547138 C53.9073388,20.6377777 56.5961161,23.4394322 58.7429202,23.9875362 C63.8769031,25.2945534 70.4153768,23.9654012 73.0145281,18.8754125 C74.5276244,15.9051106 75.1181009,11.2114432 73.4299706,8.79767765 C72.2342555,7.09960935 70.011533,3.93114673 66.761803,3.06472083 C64.0498284,2.33848305 60.0250979,2.2847267 57.5788378,3.59596007 C55.4921357,4.71008681 52.470161,7.90279249 52.0462831,10.3239364 L52.2149907,10.4578003 C52.1348546,10.5610968 52.0610451,10.680204 51.9956709,10.8098517 C51.9956709,10.885743 51.9956709,10.9626884 51.9988341,11.0385797 L51.8933919,11.0438499 Z" id="Shape" fill="#231F20" fill-rule="nonzero"></path>
                <path d="M102.637193,47 C100.880743,47 99.081857,46.7388701 96.974531,46.1884082 C92.8250862,45.0906179 88.8122657,42.9368182 85.9514362,40.2722483 C82.2760362,36.8608468 80.0517516,31.4857481 80,25.8913003 C80,17.9842858 82.4726924,11.7819275 87.35287,7.44925955 C91.2549421,3.98772109 96.7695946,2 102.485043,2 C104.727959,2 106.914982,2.30186621 108.986082,2.88784179 C112.640781,3.92818346 117.219764,6.9865373 119.404718,9.85478854 C122.105117,13.3925769 123.789115,15.8398867 124.373908,19.9772295 L124.656472,21.8866116 C125.078765,24.6430992 125.194689,25.3857528 124.522953,28.9695 C123.858462,32.4759528 121.669369,36.8221995 119.315705,39.3029339 C116.518012,42.2286338 113.953202,44.3134952 109.827563,45.6682373 C106.968804,46.6030825 104.823182,47 102.637193,47 Z M102.484008,4.52564876 C97.3688784,4.52564876 92.4555797,6.28253099 89.0068518,9.34401838 C84.6897317,13.1774059 82.5006382,18.7405181 82.5006382,25.8787661 C82.5472147,30.7754747 84.4723749,35.4653684 87.6499243,38.4150921 C90.1795435,40.7757068 93.9004849,42.7644724 97.6059008,43.7400539 C101.853674,44.85769 104.376048,44.7929298 109.055429,43.2668864 C112.685288,42.0730003 114.983059,40.1970428 117.513714,37.5523188 C119.535132,35.4246321 121.493413,31.5254399 122.064751,28.4984216 C122.654719,25.3429274 122.583302,24.8728936 122.18171,22.2720394 L121.895006,20.3323662 C121.413716,16.9293208 120.10026,14.903997 117.422631,11.3923216 C115.549222,8.94187828 111.460844,6.21672624 108.307101,5.32157281 C106.457498,4.79304582 104.497146,4.52564876 102.484008,4.52564876 Z" id="Shape" fill="#231F20" fill-rule="nonzero"></path>
                <path d="M51.9999242,87 L49.7336433,87 L49.7308316,83.4380804 C49.7280198,81.0603483 49.725208,78.6805368 49.7336433,76.2986461 C49.7373923,73.6672338 49.6014905,70.9744808 49.4721494,68.3711396 C49.4149769,67.2358167 49.3559298,66.1025732 49.3090671,64.9662106 L49.2209652,62.9263723 C49.0672555,59.4642612 48.9107341,55.8877862 49.0606947,52.334184 C49.1113065,51.1687106 49.0991222,49.6258359 49.0803771,47.9322086 C49.06913,46.3643817 49.0550712,44.6645164 49.0850634,43 L51.350407,43.0530233 C51.3204148,44.6915479 51.3344736,46.3654214 51.3475952,47.9103755 C51.365403,49.6611848 51.3766501,51.2508447 51.3260383,52.4527067 C51.1770149,55.8846672 51.3335364,59.4039602 51.4872461,62.8026512 L51.575348,64.8549656 C51.6193989,65.9798918 51.6775087,67.1068973 51.733744,68.2318234 C51.8677713,70.8694738 52.0036732,73.6006947 51.9999242,76.3100825 C51.9914889,78.6898939 51.9933634,81.0634673 51.9971124,83.4370407 L51.9999242,87 Z" id="Path" fill="#231F20" fill-rule="nonzero"></path>
                <path d="M49.8883005,82 C48.5130582,82 47.2525965,81.8305541 46.060153,81.495846 C43.842123,80.8661766 41.653851,79.4185643 39.7217099,78.141444 C39.1318648,77.7492081 38.555836,77.3674317 38,77.024356 L39.3656773,74.8853625 C39.9448945,75.2409898 40.5400535,75.6374096 41.1575309,76.0432431 C43.0174027,77.275387 44.9442299,78.5493694 46.7700926,79.065029 C49.1390379,79.7292152 52.0861376,79.5639531 55.7856883,78.5462315 C58.6371375,77.7554838 59.6499705,74.4931265 59.3885257,71.6083617 C59.2046641,69.4976092 57.1481773,68.5499671 54.0331577,67.3450182 C53.3976129,67.100263 52.7748216,66.8565537 52.1998555,66.6034308 C48.0645634,64.7813639 37.3357601,60.0462913 40.9088395,52.0540912 C43.1374973,47.0596199 48.3111293,47.0209193 50.8022947,47 C50.8076086,47 50.8118597,47 50.8192992,47 C52.812019,47 59.883783,49.1410854 61.8233636,51.4306975 L59.8529622,53.0529855 C58.5850611,51.5530751 52.418789,49.5291375 50.8299271,49.5291375 C50.8267387,49.5291375 50.8224876,49.5291375 50.820362,49.5291375 C47.786114,49.5531947 44.7008524,49.8460642 43.2629058,53.0718128 C41.00449,58.1196282 47.363126,61.6989122 53.1595493,64.2541988 C53.7982825,64.5366087 54.3796252,64.7625366 54.975847,64.9936943 C57.931449,66.1379774 61.6150579,67.5615325 61.9519604,71.3876636 C62.3037419,75.3100233 60.7478263,79.7961568 56.480749,80.9833244 C53.997023,81.6590162 51.833195,82 49.8883005,82 Z" id="Path" fill="#231F20" fill-rule="nonzero"></path>
            </g>
        </g>
    </g>
</svg>