<?xml version="1.0" encoding="UTF-8"?>
<svg width="172px" height="113px" viewBox="0 0 172 113" version="1.1" xmlns="http://www.w3.org/2000/svg" xmlns:xlink="http://www.w3.org/1999/xlink">
    <!-- Generator: Sketch 55.1 (78136) - https://sketchapp.com -->
    <title>tc_creator_icon 2</title>
    <desc>Created with Sketch.</desc>
    <defs>
        <path d="M4.999,91.992 L73.247,108.021 C91.884,93.255 104.739,50.523 93.507,22.113 L0.717,0.496 L4.999,91.992 Z" id="path-1"></path>
        <path d="M4.999,91.992 L73.247,108.021 C91.884,93.255 104.739,50.523 93.507,22.113 L0.717,0.496 L4.999,91.992 Z" id="path-3"></path>
    </defs>
    <g id="Page-1" stroke="none" stroke-width="1" fill="none" fill-rule="evenodd">
        <g id="Artboard" transform="translate(-581.000000, -1175.000000)">
            <g id="tc_creator_icon-2" transform="translate(581.000000, 1175.000000)">
                <g id="Group" transform="translate(74.000000, 5.000000)">
                    <g id="Clipped">
                        <mask id="mask-2" fill="white">
                            <use xlink:href="#path-1"></use>
                        </mask>
                        <g id="SVGID_1_"></g>
                        <g id="Group" mask="url(#mask-2)">
                            <g transform="translate(-119.000000, -191.000000)">
                                <rect id="Rectangle" stroke="none" transform="translate(142.621491, 144.596513) rotate(150.199689) translate(-142.621491, -144.596513) " x="39.8325793" y="37.6229221" width="205.577823" height="213.947182"></rect>
                                <path d="M0.473,102.727 L106.792,288.376" id="Path" stroke="#231F20" stroke-width="0.4273"></path>
                                <path d="M10.094,97.217 L116.413,282.866" id="Path" stroke="#231F20" stroke-width="0.4273"></path>
                                <path d="M19.715,91.708 L126.033,277.357" id="Path" stroke="#231F20" stroke-width="0.4273"></path>
                                <path d="M29.336,86.198 L135.654,271.848" id="Path" stroke="#231F20" stroke-width="0.4273"></path>
                                <path d="M48.577,75.179 L154.896,260.828" id="Path" stroke="#231F20" stroke-width="0.4273"></path>
                                <path d="M67.818,64.159 L174.137,249.809" id="Path" stroke="#231F20" stroke-width="0.4273"></path>
                                <path d="M58.198,69.669 L164.516,255.319" id="Path" stroke="#231F20" stroke-width="0.4273"></path>
                                <path d="M77.439,58.65 L183.757,244.299" id="Path" stroke="#231F20" stroke-width="0.4273"></path>
                                <path d="M87.06,53.14 L193.378,238.79" id="Path" stroke="#231F20" stroke-width="0.4273"></path>
                                <path d="M96.68,47.631 L202.998,233.281" id="Path" stroke="#231F20" stroke-width="0.4273"></path>
                                <path d="M38.956,80.689 L145.275,266.338" id="Path" stroke="#231F20" stroke-width="0.4273"></path>
                                <path d="M106.301,42.121 L212.619,227.771" id="Path" stroke="#231F20" stroke-width="0.4273"></path>
                                <path d="M115.922,36.612 L222.24,222.261" id="Path" stroke="#231F20" stroke-width="0.4273"></path>
                                <path d="M125.542,31.102 L231.861,216.751" id="Path" stroke="#231F20" stroke-width="0.4273"></path>
                                <path d="M149.594,17.328 L255.912,202.977" id="Path" stroke="#231F20" stroke-width="0.4273"></path>
                                <path d="M168.835,6.309 L275.154,191.958" id="Path" stroke="#231F20" stroke-width="0.4273"></path>
                                <path d="M159.215,11.819 L265.533,197.468" id="Path" stroke="#231F20" stroke-width="0.4273"></path>
                                <path d="M178.456,0.799 L284.775,186.448" id="Path" stroke="#231F20" stroke-width="0.4273"></path>
                                <path d="M139.973,22.838 L246.291,208.487" id="Path" stroke="#231F20" stroke-width="0.4273"></path>
                                <path d="M5.284,99.972 L111.602,285.621" id="Path" stroke="#231F20" stroke-width="0.4273"></path>
                                <path d="M14.904,94.463 L121.222,280.112" id="Path" stroke="#231F20" stroke-width="0.4273"></path>
                                <path d="M24.525,88.953 L130.844,274.603" id="Path" stroke="#231F20" stroke-width="0.4273"></path>
                                <path d="M34.146,83.444 L140.464,269.093" id="Path" stroke="#231F20" stroke-width="0.4273"></path>
                                <path d="M53.387,72.424 L159.705,258.073" id="Path" stroke="#231F20" stroke-width="0.4273"></path>
                                <path d="M72.628,61.405 L178.947,247.054" id="Path" stroke="#231F20" stroke-width="0.4273"></path>
                                <path d="M63.008,66.914 L169.326,252.564" id="Path" stroke="#231F20" stroke-width="0.4273"></path>
                                <path d="M82.249,55.895 L188.568,241.545" id="Path" stroke="#231F20" stroke-width="0.4273"></path>
                                <path d="M91.87,50.386 L198.188,236.035" id="Path" stroke="#231F20" stroke-width="0.4273"></path>
                                <path d="M101.49,44.876 L207.809,230.526" id="Path" stroke="#231F20" stroke-width="0.4273"></path>
                                <path d="M43.766,77.934 L150.085,263.583" id="Path" stroke="#231F20" stroke-width="0.4273"></path>
                                <path d="M111.111,39.366 L217.43,225.016" id="Path" stroke="#231F20" stroke-width="0.4273"></path>
                                <path d="M120.732,33.857 L227.05,219.506" id="Path" stroke="#231F20" stroke-width="0.4273"></path>
                                <path d="M130.352,28.347 L236.671,213.997" id="Path" stroke="#231F20" stroke-width="0.4273"></path>
                                <path d="M135.163,25.593 L241.482,211.242" id="Path" stroke="#231F20" stroke-width="0.4273"></path>
                                <path d="M154.405,14.573 L260.723,200.223" id="Path" stroke="#231F20" stroke-width="0.4273"></path>
                                <path d="M173.646,3.554 L279.964,189.203" id="Path" stroke="#231F20" stroke-width="0.4273"></path>
                                <path d="M164.025,9.064 L270.343,194.713" id="Path" stroke="#231F20" stroke-width="0.4273"></path>
                                <path d="M144.783,20.083 L251.102,205.732" id="Path" stroke="#231F20" stroke-width="0.4273"></path>
                            </g>
                        </g>
                    </g>
                    <g id="Clipped">
                        <mask id="mask-4" fill="white">
                            <use xlink:href="#path-3"></use>
                        </mask>
                        <g id="SVGID_1_"></g>
                        <g id="Group" mask="url(#mask-4)">
                            <g transform="translate(-13.000000, -5.000000)">
                                <rect id="Rectangle" stroke="none" transform="translate(142.929295, 144.244671) rotate(150.199689) translate(-142.929295, -144.244671) " x="40.1398835" y="37.2715805" width="205.578823" height="213.946182"></rect>
                                <path d="M0.792,102.376 L107.11,288.026" id="Path" stroke="#231F20" stroke-width="0.4273"></path>
                                <path d="M10.412,96.866 L116.731,282.516" id="Path" stroke="#231F20" stroke-width="0.4273"></path>
                                <path d="M20.033,91.357 L126.352,277.006" id="Path" stroke="#231F20" stroke-width="0.4273"></path>
                                <path d="M29.654,85.848 L135.972,271.497" id="Path" stroke="#231F20" stroke-width="0.4273"></path>
                                <path d="M48.896,74.828 L155.214,260.478" id="Path" stroke="#231F20" stroke-width="0.4273"></path>
                                <path d="M68.137,63.809 L174.455,249.458" id="Path" stroke="#231F20" stroke-width="0.4273"></path>
                                <path d="M58.516,69.319 L164.834,254.968" id="Path" stroke="#231F20" stroke-width="0.4273"></path>
                                <path d="M77.757,58.299 L184.075,243.948" id="Path" stroke="#231F20" stroke-width="0.4273"></path>
                                <path d="M87.378,52.79 L193.697,238.44" id="Path" stroke="#231F20" stroke-width="0.4273"></path>
                                <path d="M96.998,47.281 L203.317,232.93" id="Path" stroke="#231F20" stroke-width="0.4273"></path>
                                <path d="M39.275,80.338 L145.593,265.988" id="Path" stroke="#231F20" stroke-width="0.4273"></path>
                                <path d="M106.619,41.771 L212.938,227.42" id="Path" stroke="#231F20" stroke-width="0.4273"></path>
                                <path d="M5.602,99.621 L111.92,285.271" id="Path" stroke="#231F20" stroke-width="0.4273"></path>
                                <path d="M15.222,94.112 L121.541,279.762" id="Path" stroke="#231F20" stroke-width="0.4273"></path>
                                <path d="M24.844,88.603 L131.162,274.252" id="Path" stroke="#231F20" stroke-width="0.4273"></path>
                                <path d="M34.464,83.093 L140.782,268.742" id="Path" stroke="#231F20" stroke-width="0.4273"></path>
                                <path d="M53.705,72.073 L160.024,257.723" id="Path" stroke="#231F20" stroke-width="0.4273"></path>
                                <path d="M72.947,61.054 L179.265,246.703" id="Path" stroke="#231F20" stroke-width="0.4273"></path>
                                <path d="M63.326,66.564 L169.645,252.213" id="Path" stroke="#231F20" stroke-width="0.4273"></path>
                                <path d="M82.568,55.545 L188.886,241.195" id="Path" stroke="#231F20" stroke-width="0.4273"></path>
                                <path d="M92.188,50.035 L198.506,235.685" id="Path" stroke="#231F20" stroke-width="0.4273"></path>
                                <path d="M101.809,44.526 L208.127,230.175" id="Path" stroke="#231F20" stroke-width="0.4273"></path>
                                <path d="M44.085,77.583 L150.404,263.233" id="Path" stroke="#231F20" stroke-width="0.4273"></path>
                            </g>
                        </g>
                    </g>
                </g>
                <path d="M10.534,37.964 C10.615,38.05 10.316,31.956 10.316,30.163 C10.316,26.929 10.382,23.809 10.678,20.665 C10.955,17.731 11.517,14.784 11.505,11.782 C11.488,10.393 11.737,9.206 12.013,7.878 C12.334,6.325 12.253,4.671 13.272,3.515 C13.906,2.802 15.122,1.521 15.945,1.195 C17.039,0.773 18.657,1.125 19.814,1.125 C31.177,1.125 42.552,0.631 53.918,1.066 C63.439,1.42 73.393,1.914 83.009,1.498 C86.88,1.334 90.609,1.834 94.515,1.838 C101.411,1.838 108.847,1.914 115.964,1.555 C117.271,1.485 118.71,1.493 120.023,1.479 C122.377,1.465 126.541,2.17 127.507,5.004 C128.005,6.477 127.796,8.219 128.099,9.645 C128.429,11.174 128.671,12.647 128.704,14.256 C128.919,27.289 128.196,40.307 127.796,53.32 C127.437,65.214 129.191,78.257 127.63,89.966 C127.448,91.37 126.714,93.446 125.657,94.347 C122.557,96.986 115.29,95.597 111.673,95.474 C102.04,95.142 92.446,95.388 82.824,95.179 C72.601,94.952 62.113,94.583 51.568,94.583 C46.271,94.583 40.917,94.532 35.849,95.304 C33.022,95.728 30.132,95.638 27.226,95.652 C26.056,95.654 25.103,95.472 23.963,95.312 C22.745,95.142 21.349,95.179 20.105,94.96 C17.957,94.569 15.278,93.364 13.663,91.997 C11.657,90.306 11.463,88.075 11.192,85.36 C10.874,82.194 11.224,78.866 10.898,75.749 C10.422,71.157 10.551,66.419 10.483,61.792 C10.413,57.202 10.488,52.908 10.754,48.349 C10.898,45.728 10.81,43.078 10.81,40.451 C10.811,39.718 10.534,40.098 10.534,37.964" id="Path" fill="#FFFFFF" fill-rule="nonzero"></path>
                <g id="Group" fill="#231F20" fill-rule="nonzero">
                    <path d="M109.91,87.287 C108.197,87.287 106.441,87.148 104.898,87.027 C103.943,86.953 103.068,86.882 102.343,86.861 C92.683,86.562 83.084,86.787 73.572,86.597 L65.244,86.413 C57.786,86.241 50.077,86.063 42.416,86.063 L40.619,86.063 C35.657,86.063 31.199,86.112 26.898,86.696 C24.697,86.993 22.523,87.018 20.299,87.018 L18.137,87.018 C17.111,87.018 16.271,86.911 15.358,86.788 L14.728,86.706 C14.208,86.644 13.651,86.616 13.095,86.583 C12.332,86.542 11.561,86.499 10.836,86.386 C8.46,86.001 5.596,84.822 3.867,83.511 C1.484,81.714 1.224,79.363 0.943,76.872 C0.767,75.282 0.773,73.782 0.78,72.331 C0.786,70.88 0.795,69.507 0.64,68.183 C0.273,65.033 0.257,61.798 0.244,58.671 C0.236,57.644 0.231,56.621 0.215,55.605 C0.144,51.33 0.232,47.486 0.489,43.503 C0.593,41.839 0.573,40.155 0.555,38.478 L0.542,36.533 C0.387,36.07 0.265,35.617 0.265,34.312 L0.265,33.441 C0.245,32.886 0.211,32.109 0.18,31.287 C0.117,29.773 0.048,28.121 0.048,27.349 C0.048,24.826 0.092,21.828 0.415,18.744 C0.507,17.873 0.631,17.002 0.752,16.131 C0.995,14.422 1.243,12.664 1.234,10.947 C1.217,9.588 1.482,8.439 1.762,7.228 C1.85,6.847 1.901,6.505 1.951,6.169 C2.124,5.034 2.318,3.751 3.342,2.712 C4.626,1.423 5.679,0.626 6.468,0.349 C7.299,0.058 8.492,0.072 9.682,0.163 C10.054,0.186 10.412,0.216 10.73,0.216 C14.663,0.216 18.597,0.163 22.532,0.111 C29.95,0.006 37.373,-0.09 44.799,0.164 L48.196,0.279 C56.575,0.576 65.314,0.881 73.733,0.55 C75.978,0.464 78.167,0.575 80.374,0.685 C81.989,0.767 83.607,0.853 85.26,0.853 L91.602,0.859 C96.446,0.859 101.61,0.828 106.606,0.601 C107.635,0.554 108.749,0.544 109.823,0.537 L110.694,0.531 C110.698,0.531 110.698,0.531 110.698,0.531 C111.96,0.531 117.882,0.722 119.303,4.457 C119.655,5.393 119.715,6.367 119.768,7.23 C119.805,7.759 119.829,8.279 119.944,8.751 C120.217,9.884 120.538,11.409 120.579,13.12 C120.739,21.823 120.374,30.64 120.018,39.165 C119.895,42.132 119.774,45.097 119.672,48.061 C119.533,52.133 119.713,56.473 119.889,60.664 C120.172,67.418 120.461,74.4 119.493,80.914 C119.272,82.447 118.417,84.574 117.063,85.607 C115.565,86.752 113.293,87.287 109.91,87.287 Z M40.62,83.647 L42.417,83.647 C50.107,83.647 57.829,83.825 65.299,83.997 L73.624,84.181 C83.13,84.37 92.713,84.15 102.418,84.445 C103.174,84.47 104.088,84.541 105.088,84.619 C106.572,84.736 108.264,84.871 109.91,84.871 C112.656,84.871 114.57,84.471 115.598,83.687 C116.311,83.146 116.95,81.638 117.104,80.568 C118.043,74.275 117.754,67.408 117.479,60.769 C117.303,56.529 117.118,52.148 117.258,47.982 C117.362,45.011 117.485,42.041 117.608,39.068 C117.96,30.578 118.323,21.797 118.165,13.172 C118.136,12.01 117.968,10.856 117.597,9.317 C117.451,8.713 117.404,8.055 117.363,7.383 C117.316,6.625 117.271,5.906 117.049,5.319 C116.43,3.692 113.365,2.952 110.781,2.952 L109.843,2.958 C108.804,2.964 107.724,2.972 106.724,3.02 C101.677,3.249 96.476,3.28 91.607,3.28 L85.265,3.272 C83.572,3.272 81.909,3.188 80.256,3.102 C78.122,2.997 75.996,2.881 73.834,2.971 C65.341,3.301 56.538,2.992 48.115,2.7 L44.721,2.583 C37.33,2.329 29.949,2.429 22.571,2.53 C18.625,2.583 14.68,2.637 10.735,2.637 C10.364,2.637 9.946,2.608 9.511,2.576 C8.664,2.51 7.71,2.478 7.273,2.633 C6.968,2.74 6.202,3.272 5.066,4.414 C4.62,4.869 4.503,5.518 4.346,6.533 C4.285,6.933 4.222,7.334 4.131,7.73 C3.863,8.888 3.644,9.847 3.655,10.927 C3.665,12.829 3.403,14.679 3.151,16.468 C3.032,17.314 2.913,18.157 2.824,18.999 C2.51,21.97 2.469,24.888 2.469,27.351 C2.469,28.107 2.539,29.734 2.598,31.218 C2.671,32.935 2.709,33.818 2.68,34.318 L2.689,34.318 C2.686,35.306 2.762,35.519 2.809,35.646 C2.888,35.867 2.964,36.117 2.964,36.535 L2.976,38.455 C2.996,40.191 3.01,41.934 2.904,43.66 C2.649,47.576 2.564,51.361 2.636,55.568 C2.652,56.595 2.658,57.626 2.663,58.659 C2.676,61.721 2.692,64.889 3.041,67.909 C3.214,69.378 3.205,70.886 3.199,72.347 C3.192,73.728 3.186,75.154 3.338,76.492 C3.606,78.898 3.772,80.414 5.326,81.584 C6.75,82.664 9.23,83.682 11.22,84.002 C11.859,84.104 12.546,84.139 13.222,84.172 C13.842,84.207 14.452,84.238 15.027,84.311 L15.674,84.397 C16.485,84.504 17.23,84.604 18.101,84.604 L20.301,84.604 C22.439,84.604 24.526,84.581 26.575,84.303 C31.024,83.698 35.566,83.647 40.62,83.647 Z" id="Shape"></path>
                    <path d="M101.469,71.074 C101.295,71.074 101.125,71.06 100.969,71.053 L100.674,71.035 C99.592,71.035 98.504,71.01 97.41,70.986 C96.328,70.961 95.244,70.933 94.162,70.933 L91.793,70.931 C90.215,70.931 88.637,70.927 87.061,70.933 C86.661,71.009 86.227,70.884 85.814,70.831 C85.506,70.786 85.194,70.745 84.88,70.739 C84.508,70.731 84.133,70.735 83.761,70.735 L83.189,70.739 C82.61,70.739 82.062,70.688 81.518,70.634 C81.026,70.589 80.536,70.54 80.024,70.54 L74.174,70.546 C73.715,70.579 73.112,70.591 72.604,70.134 C72.192,69.763 71.871,69.2 71.749,68.624 C71.554,67.739 71.557,66.856 71.56,66.007 C71.56,65.683 71.56,65.357 71.55,65.027 L71.525,64.369 C71.495,63.515 71.457,62.631 71.56,61.754 L71.658,61.764 C71.695,61.108 71.713,59.682 71.658,56.698 L71.648,56.141 C71.648,55.452 71.734,54.809 71.818,54.159 C71.859,53.862 71.9,53.559 71.929,53.255 C71.95,53.025 71.945,52.786 71.941,52.55 C71.937,52.308 71.935,52.068 71.947,51.829 C71.967,51.577 72.011,51.341 72.054,51.1 C72.093,50.899 72.136,50.698 72.138,50.485 C72.196,48.587 73.716,48.366 74.216,48.294 C77.497,47.815 80.823,47.718 84.812,47.718 C85.733,47.718 86.684,47.642 87.637,47.566 C89.123,47.455 90.665,47.33 92.145,47.482 C93.711,47.642 95.293,47.718 97.125,47.718 L99.586,47.718 C100.688,47.718 101.535,47.894 102.242,48.275 C102.683,48.492 103.045,48.668 103.291,48.959 C103.379,49.066 103.445,49.166 103.496,49.254 L103.533,49.285 C104.289,49.916 104.65,51.086 104.732,51.896 C104.769,52.285 104.722,52.632 104.679,52.935 C104.661,53.054 104.644,53.175 104.634,53.298 C104.515,54.841 104.536,56.292 104.562,57.831 C104.58,59.003 104.599,60.186 104.552,61.417 C104.527,62.099 104.562,62.802 104.593,63.507 C104.695,65.739 104.798,68.044 103.253,69.845 C103.058,70.247 102.878,70.628 102.452,70.861 C102.155,71.03 101.805,71.074 101.469,71.074 Z M89.428,69.317 C90.219,69.317 91.008,69.321 91.795,69.321 L94.162,69.323 C95.258,69.323 96.353,69.35 97.447,69.374 C98.529,69.399 99.605,69.425 100.674,69.425 C100.791,69.425 100.93,69.435 101.074,69.445 C101.248,69.455 101.568,69.48 101.685,69.445 L101.685,69.445 C101.656,69.445 101.697,69.359 101.722,69.302 C101.794,69.154 101.884,68.97 102.025,68.8 C103.158,67.48 103.072,65.585 102.982,63.579 C102.947,62.833 102.916,62.085 102.941,61.356 C102.988,60.155 102.968,58.999 102.951,57.856 C102.926,56.349 102.904,54.79 103.029,53.169 C103.043,53.013 103.064,52.86 103.084,52.71 C103.117,52.466 103.148,52.255 103.127,52.06 C103.08,51.568 102.895,51.042 102.678,50.724 L102.436,50.703 L102.145,50.156 C102.012,49.959 101.803,49.855 101.688,49.799 L101.487,49.701 C101.016,49.447 100.415,49.33 99.587,49.33 L97.126,49.33 C95.239,49.33 93.603,49.252 91.981,49.088 C90.633,48.949 89.177,49.063 87.763,49.176 C86.766,49.254 85.777,49.33 84.812,49.33 C80.894,49.33 77.63,49.424 74.449,49.887 C73.795,49.987 73.763,50.108 73.752,50.52 C73.748,50.819 73.695,51.116 73.638,51.409 C73.604,51.581 73.57,51.751 73.557,51.93 C73.547,52.123 73.551,52.325 73.553,52.526 C73.557,52.817 73.559,53.114 73.535,53.407 C73.5,53.741 73.459,54.059 73.418,54.374 C73.339,54.954 73.26,55.528 73.26,56.144 L73.271,56.671 C73.352,61.12 73.298,62.356 73.107,62.823 C73.096,63.303 73.12,63.796 73.137,64.305 L73.162,64.979 C73.172,65.325 73.172,65.67 73.172,66.018 C73.17,66.813 73.17,67.569 73.324,68.286 C73.377,68.532 73.521,68.794 73.685,68.938 C73.732,68.959 73.962,68.948 74.109,68.942 L74.431,68.932 L80.025,68.932 C80.589,68.932 81.129,68.983 81.67,69.034 C82.166,69.085 82.664,69.13 83.191,69.13 L83.751,69.128 C84.146,69.128 84.532,69.124 84.913,69.13 C85.284,69.136 85.659,69.185 86.031,69.235 C86.364,69.278 86.698,69.325 87.04,69.325 C87.045,69.325 87.051,69.325 87.058,69.325 C87.845,69.321 88.637,69.317 89.428,69.317 Z" id="Shape"></path>
                    <path d="M58.127,39.516 C57.948,39.516 57.775,39.504 57.614,39.495 C57.508,39.485 57.403,39.479 57.319,39.479 C56.238,39.479 55.149,39.456 54.06,39.428 C52.977,39.407 51.891,39.381 50.808,39.381 L48.435,39.379 C46.855,39.373 45.282,39.369 43.707,39.381 C43.696,39.381 43.69,39.381 43.685,39.381 C43.266,39.381 42.861,39.328 42.45,39.274 C42.143,39.233 41.834,39.19 41.519,39.184 C41.158,39.18 40.779,39.184 40.405,39.18 L39.836,39.184 C39.257,39.184 38.709,39.133 38.161,39.082 C37.671,39.035 37.182,38.988 36.671,38.988 L30.817,38.994 C30.376,39.015 29.754,39.043 29.247,38.578 C28.829,38.199 28.506,37.631 28.393,37.058 C28.202,36.173 28.202,35.283 28.204,34.415 C28.204,34.101 28.204,33.786 28.195,33.468 L28.17,32.769 C28.139,31.929 28.104,31.06 28.208,30.195 L28.302,30.205 C28.34,29.547 28.36,28.115 28.309,25.131 L28.299,24.588 C28.299,23.891 28.381,23.244 28.465,22.584 C28.507,22.297 28.545,22 28.572,21.701 C28.597,21.465 28.591,21.232 28.585,20.996 C28.583,20.754 28.578,20.512 28.595,20.267 C28.611,20.019 28.655,19.787 28.699,19.55 C28.741,19.347 28.785,19.14 28.787,18.923 C28.831,17.034 30.356,16.812 30.857,16.739 C34.377,16.225 38.032,16.157 41.456,16.157 C42.379,16.157 43.326,16.085 44.276,16.009 C45.769,15.896 47.311,15.779 48.795,15.927 C50.333,16.087 51.87,16.157 53.771,16.157 L56.234,16.157 C57.309,16.157 58.177,16.343 58.89,16.719 C59.333,16.936 59.692,17.11 59.941,17.399 C60.033,17.51 60.098,17.616 60.148,17.706 L60.18,17.729 C60.942,18.366 61.301,19.534 61.378,20.342 C61.42,20.717 61.372,21.057 61.332,21.358 C61.316,21.479 61.298,21.602 61.288,21.731 C61.161,23.301 61.186,24.77 61.213,26.319 C61.228,27.477 61.247,28.641 61.202,29.858 C61.178,30.544 61.21,31.249 61.24,31.952 C61.342,34.182 61.441,36.489 59.897,38.288 C59.713,38.684 59.531,39.075 59.097,39.308 C58.801,39.477 58.458,39.516 58.127,39.516 Z M46.065,37.764 C46.855,37.764 47.644,37.764 48.438,37.766 L50.808,37.77 C51.904,37.77 52.998,37.795 54.094,37.821 C55.174,37.842 56.251,37.868 57.319,37.868 C57.438,37.868 57.576,37.878 57.723,37.888 C57.9,37.896 58.215,37.921 58.332,37.89 L58.328,37.89 C58.304,37.89 58.341,37.806 58.369,37.747 C58.435,37.601 58.52,37.421 58.661,37.251 C59.801,35.925 59.716,34.03 59.628,32.024 C59.594,31.276 59.562,30.53 59.587,29.803 C59.631,28.615 59.611,27.475 59.598,26.346 C59.572,24.826 59.546,23.254 59.679,21.617 C59.688,21.459 59.71,21.299 59.733,21.137 C59.763,20.903 59.793,20.698 59.77,20.504 C59.724,20.01 59.541,19.484 59.321,19.17 L59.078,19.145 L58.788,18.594 C58.666,18.408 58.451,18.305 58.336,18.248 L58.135,18.146 C57.656,17.892 57.036,17.769 56.231,17.769 L53.768,17.769 C51.81,17.769 50.224,17.697 48.628,17.533 C47.276,17.392 45.819,17.508 44.399,17.617 C43.405,17.693 42.417,17.769 41.453,17.769 C38.088,17.769 34.503,17.837 31.088,18.333 C30.408,18.433 30.405,18.573 30.396,18.958 C30.389,19.267 30.335,19.563 30.279,19.856 C30.248,20.028 30.214,20.202 30.197,20.379 C30.184,20.568 30.191,20.766 30.195,20.963 C30.201,21.262 30.203,21.565 30.175,21.859 C30.143,22.173 30.102,22.486 30.062,22.795 C29.986,23.383 29.908,23.963 29.908,24.586 L29.913,25.098 C29.993,29.59 29.939,30.807 29.748,31.268 C29.74,31.733 29.76,32.211 29.778,32.706 L29.803,33.421 C29.814,33.755 29.814,34.089 29.814,34.419 C29.81,35.231 29.81,35.999 29.967,36.73 C30.017,36.978 30.158,37.23 30.329,37.384 C30.375,37.404 30.6,37.39 30.75,37.384 L31.068,37.376 L36.671,37.376 C37.235,37.376 37.775,37.425 38.313,37.476 C38.809,37.523 39.308,37.572 39.836,37.572 L40.396,37.568 C40.787,37.568 41.173,37.566 41.551,37.572 C41.929,37.58 42.297,37.627 42.665,37.677 C43.009,37.72 43.349,37.753 43.697,37.769 C44.487,37.764 45.275,37.764 46.065,37.764 Z" id="Shape"></path>
                    <path d="M94.533,40.434 C94.099,40.434 93.656,40.401 93.222,40.366 C92.865,40.343 92.515,40.313 92.195,40.309 C91.259,40.301 90.324,40.256 89.391,40.211 C88.334,40.164 87.281,40.115 86.217,40.115 L82.926,40.115 C82.66,40.115 82.385,40.127 82.112,40.136 C81.503,40.161 80.882,40.185 80.264,40.111 C78.631,39.904 77.023,39.716 75.336,39.716 C75.112,39.716 74.86,39.736 74.603,39.755 C73.981,39.802 73.274,39.849 72.67,39.694 C71.375,39.382 71.111,38.294 70.936,37.573 C70.589,36.184 70.659,34.907 70.725,33.673 C70.753,33.179 70.778,32.685 70.778,32.202 C70.778,31.19 70.75,30.2 70.722,29.212 L70.678,27.415 L70.835,27.403 C70.766,27.169 70.736,27.065 70.722,26.967 C70.636,26.457 70.63,25.922 70.627,25.406 C70.618,24.375 70.678,23.357 70.813,22.244 C70.92,21.305 70.974,20.496 70.974,19.769 C70.967,19.193 70.961,18.648 71.511,18.103 C71.848,17.773 72.298,17.376 72.809,17.205 C73.366,17.002 74.002,16.994 74.661,17.006 C74.911,17.006 75.157,17.006 75.369,16.988 C75.979,16.943 76.614,16.949 77.251,16.97 C77.567,16.98 77.873,16.974 78.196,16.986 C79.128,16.986 80.073,16.939 81.016,16.89 C82.024,16.837 83.037,16.808 84.024,16.79 C85.896,16.794 87.762,16.815 89.632,16.837 C92.343,16.872 95.031,17.001 97.785,16.784 C99.029,16.68 100.326,16.575 101.613,16.831 C101.98,16.901 103.256,17.2 103.97,18.116 C104.577,18.889 104.659,19.835 104.659,20.657 C104.659,21.405 104.733,22.098 104.848,22.913 C104.926,23.511 104.901,24.118 104.875,24.71 C104.863,24.976 104.85,25.237 104.85,25.489 L104.854,26.581 C104.858,28.362 104.864,30.044 104.747,31.854 C104.716,32.383 104.757,32.977 104.798,33.592 C104.927,35.528 105.083,37.936 103.142,39.358 C101.814,40.338 99.951,40.305 98.408,40.309 L97.933,40.305 C97.042,40.305 96.119,40.305 95.144,40.405 C94.946,40.427 94.739,40.434 94.533,40.434 Z M82.927,38.505 L86.218,38.505 C87.308,38.505 88.386,38.554 89.466,38.605 C90.382,38.646 91.299,38.691 92.214,38.699 C92.568,38.703 92.95,38.73 93.345,38.761 C93.921,38.806 94.519,38.861 94.988,38.804 C96.039,38.699 97.004,38.699 97.935,38.699 L98.425,38.703 C99.696,38.709 101.294,38.724 102.191,38.066 C103.42,37.168 103.308,35.482 103.193,33.705 C103.148,33.016 103.107,32.353 103.14,31.758 C103.255,30.002 103.249,28.344 103.245,26.59 L103.241,25.494 C103.241,25.219 103.255,24.932 103.266,24.644 C103.287,24.123 103.313,23.587 103.25,23.134 C103.146,22.376 103.047,21.552 103.047,20.661 C103.047,20.087 103.008,19.501 102.699,19.11 C102.467,18.811 101.896,18.526 101.31,18.419 C100.224,18.198 99.103,18.292 97.914,18.394 C95.115,18.63 92.373,18.488 89.614,18.455 C87.722,18.432 85.874,18.344 83.931,18.406 C82.996,18.406 82.046,18.455 81.098,18.506 C80.125,18.553 79.157,18.602 78.196,18.602 C77.903,18.612 77.546,18.594 77.206,18.588 C76.637,18.57 76.061,18.555 75.505,18.598 C75.255,18.621 74.96,18.621 74.657,18.621 C74.14,18.619 73.645,18.621 73.341,18.728 C73.224,18.769 73.02,18.888 72.644,19.255 C72.583,19.351 72.583,19.507 72.585,19.614 C72.585,20.561 72.529,21.43 72.413,22.432 C72.286,23.483 72.23,24.434 72.239,25.338 C72.243,25.83 72.243,26.277 72.315,26.707 C72.473,27.24 72.466,27.646 72.301,27.947 L72.332,29.17 C72.361,30.172 72.391,31.174 72.391,32.203 C72.391,32.715 72.362,33.236 72.332,33.76 C72.27,34.928 72.213,36.031 72.462,37.039 C72.68,37.928 72.758,38.059 73.055,38.131 C73.422,38.223 73.99,38.186 74.489,38.147 C74.788,38.126 75.079,38.106 75.337,38.106 C77.118,38.106 78.779,38.297 80.466,38.512 C80.95,38.573 81.484,38.551 82.044,38.528 C82.343,38.516 82.638,38.505 82.927,38.505 Z" id="Shape"></path>
                </g>
            </g>
        </g>
    </g>
</svg>