<?xml version="1.0" encoding="UTF-8"?>
<svg width="51px" height="60px" viewBox="0 0 51 60" version="1.1" xmlns="http://www.w3.org/2000/svg" xmlns:xlink="http://www.w3.org/1999/xlink">
    <!-- Generator: Sketch 55.1 (78136) - https://sketchapp.com -->
    <title>tc_clap white FINAL</title>
    <desc>Created with Sketch.</desc>
    <g id="Page-1" stroke="none" stroke-width="1" fill="none" fill-rule="evenodd">
        <g id="Artboard" transform="translate(-224.000000, -2592.000000)" fill-rule="nonzero">
            <g id="tc_clap-white-FINAL" transform="translate(224.000000, 2592.000000)">
                <g id="Group" transform="translate(2.000000, 2.000000)" fill="#FFFFFF">
                    <path d="M26.9160902,18.9946891 L9.67867669,4.52238655 C8.28306767,3.42053782 6.27681203,1.81435294 3.99735338,4.95129412 L3.99735338,4.95129412 C2.8316391,6.43620168 4.43440602,8.4827563 5.82568421,9.58053782 L7.25521805,13.3907899 L5.97654135,13.3907899" id="Path"></path>
                    <path d="M14.3368421,25.2844706 L3.09798496,16.4308571 C1.69948872,15.3330756 1.51759398,13.2462185 2.6876391,11.7613109 L2.6876391,11.7613109 C3.85335338,10.2738151 5.9992782,9.87633613 7.39488722,10.9785546" id="Path"></path>
                    <path d="M18.712782,28.7726723 L13.4443308,24.6229916" id="Path"></path>
                    <path d="M13.5107368,6.57633613 C12.118015,5.4829916 12.0205714,3.2730084 13.3021353,1.64833613 L13.3021353,1.64833613 C14.580812,0.0262521008 16.752,-0.402655462 18.1432782,0.698084034 L36.2573233,14.7558992 C35.9823158,9.85969748 33.4841504,7.38978151 34.3232481,6.35707563 C35.9249323,4.38557983 39.3026165,3.48561345 41.5355188,10.1991261 C43.2415038,15.3264202 45.9114586,19.6768739 47.9783459,21.565916 L37.7305263,43.9659832 C36.6575639,43.7115966 33.6830075,41.5078992 29.9949474,41.8155294 C26.7370827,42.0784202 26.1830977,41.6450756 23.8484211,39.8077983 L1.31476692,22.0565714 C-0.0797593985,20.9617479 -0.392661654,19.0305546 0.616781955,17.7478992 L0.616781955,17.7478992 C1.62478195,16.4696807 3.40655639,16.5317983 4.80396992,17.6325378" id="Path"></path>
                </g>
                <g id="Group" fill="#000000">
                    <path d="M8.47875,13.3088707 C8.23832143,13.3088707 7.99643571,13.2321379 7.78988571,13.0727414 L4.81877143,10.7733534 C3.92517857,10.1650517 3.30042857,9.18198276 3.11245714,8.04248276 C2.91610714,6.84775 3.21919286,5.63893103 3.96488571,4.63547414 C5.43514286,2.66006897 8.21719286,2.13887931 10.1708571,3.47113793 L14.8938214,6.96377586 C15.402,7.33891379 15.5142,8.06435345 15.14445,8.58257759 C14.7757929,9.09968966 14.0658,9.21682759 13.5536143,8.83761207 L8.86780714,5.36981034 C7.93305,4.73259483 6.53419286,5.02099138 5.78121429,6.03297414 C5.41692857,6.52228448 5.26757143,7.10167241 5.3601,7.66067241 C5.44279286,8.16443966 5.72001429,8.60185345 6.14258571,8.88987931 L9.16943571,11.2285603 C9.66887143,11.6166724 9.76722857,12.3435948 9.38727857,12.8518103 C9.16178571,13.1509569 8.82190714,13.3088707 8.47875,13.3088707 Z" id="Path"></path>
                    <path d="M4.92004286,19.3136724 C4.69819286,19.3136724 4.47306429,19.248431 4.27525714,19.1109052 L3.09715714,18.2853793 C2.16094286,17.646681 1.53619286,16.6650948 1.34822143,15.5281897 C1.14895714,14.3334569 1.45058571,13.1216724 2.19773571,12.11525 C3.73757143,10.0534741 6.54657857,9.44517241 8.45907857,10.7585259 C8.98146429,11.1162414 9.11916429,11.83575 8.76799286,12.3658362 C8.41645714,12.8974052 7.70792143,13.0364138 7.18845,12.680181 C6.28611429,12.0633534 4.80492857,12.4529483 4.0137,13.51275 C3.65087143,14.0020603 3.50005714,14.582931 3.59258571,15.1430431 C3.67637143,15.6453276 3.95395714,16.0797759 4.37507143,16.3681724 L5.56628571,17.2007414 C6.0843,17.5640172 6.21507857,18.2853793 5.85953571,18.8125 C5.63732143,19.1383362 5.28141429,19.3136724 4.92004286,19.3136724 Z" id="Path"></path>
                    <path d="M37.3483929,42.8524655 C37.2842786,42.8524655 37.2216214,42.8465345 37.1589643,42.8350431 C36.7506,42.7668362 36.4489714,42.64525 36.2070857,42.5485 C35.7134786,42.350181 35.1539357,42.1240603 32.7066643,42.4369224 C29.1308357,42.8858276 28.2911571,42.4283966 25.6187571,40.6023793 L1.99155,24.4644052 C0.983935714,23.7767759 0.299442857,22.7255 0.110378571,21.5785862 C-0.0619285714,20.5302759 0.185785714,19.4934569 0.807621429,18.6564397 C1.4892,17.7382414 2.54235,17.1418017 3.69640714,17.0216983 C4.84755,16.9015948 5.97465,17.2633879 6.85840714,18.0470259 C7.3338,18.4670172 7.38225,19.1980172 6.96951429,19.6802845 C6.55677857,20.1625517 5.8395,20.215931 5.36447143,19.7933448 C4.84791429,19.3359138 4.30002857,19.2910603 3.93137143,19.3255345 C3.41044286,19.3803966 2.9223,19.6528534 2.62358571,20.0539397 C2.31467143,20.468 2.30775,20.903931 2.3562,21.1964052 C2.4429,21.7161121 2.77185,22.2072759 3.26108571,22.5416379 L26.8882929,38.6796121 C29.2503214,40.2928534 29.5577786,40.49525 32.4236143,40.1393879 C35.2242429,39.7801897 36.1389643,40.0307759 37.0427571,40.3929397 C37.2361929,40.4696724 37.3644214,40.5234224 37.5352714,40.5523362 C38.1571071,40.6579828 38.5742143,41.2559052 38.4700286,41.8860776 C38.3745857,42.4513793 37.8933643,42.8524655 37.3483929,42.8524655 Z" id="Path"></path>
                    <path d="M36.9072429,16.2046983 C36.6810214,16.2046983 36.4518857,16.1364914 36.2526214,15.9934052 L18.0044571,2.90361207 C17.0737071,2.26639655 15.5528143,2.67489655 14.7073071,3.81143103 C14.2577786,4.41528448 14.0614286,5.13331034 14.1681643,5.77942241 C14.2249929,6.11971552 14.3929286,6.59456897 14.8767,6.92337069 C15.3990857,7.27960345 15.5382429,7.99911207 15.1896214,8.53068103 C14.841,9.06225 14.1324643,9.20533621 13.6100786,8.84910345 C12.70665,8.23524138 12.1088571,7.28108621 11.9238,6.16456897 C11.7132429,4.89162069 12.0662357,3.52488793 12.8913429,2.41281897 C14.4723429,0.292844828 17.34255,-0.339922414 19.2947571,0.995301724 L37.5658714,14.0999224 C38.0795143,14.4691293 38.2019143,15.1916034 37.8390857,15.7142759 C37.6176,16.0338103 37.2646071,16.2046983 36.9072429,16.2046983 Z" id="Path"></path>
                    <path d="M41.0666571,24.7698534 C40.7592,24.7698534 40.45065,24.6423362 40.2244286,24.39175 C38.0416286,21.9592845 36.4209214,18.4377328 36.3167357,15.9326121 C35.7816,14.1803621 34.4752714,9.94782759 34.1394,9.09524138 C33.4960714,7.46346552 34.3998643,5.75458621 36.33495,4.94092241 C38.5334143,4.01419828 41.5303929,4.59062069 42.7398214,7.47940517 L43.2465429,8.70305172 C44.8202571,12.5041034 48.0959143,20.4146207 50.0470286,21.1630431 C50.6360786,21.3873103 50.9337,22.0564052 50.7114857,22.6543276 C50.4892714,23.25225 49.8321,23.5565862 49.2459643,23.3304655 C46.5936,22.3140345 44.0093571,16.5131121 41.1489857,9.6034569 L40.6451786,8.38574138 C39.8710714,6.53674138 38.0525571,6.72356897 37.2045,7.08239655 C36.7863,7.25773276 36.0519,7.72368966 36.2526214,8.23338793 C36.7050643,9.37881897 38.4623786,15.1534224 38.5366929,15.3980776 C38.5709357,15.5052069 38.5866,15.6153017 38.5880571,15.7268793 C38.6135571,17.6644741 40.0707,20.7849397 41.9077929,22.8307759 C42.3303643,23.3026638 42.2990357,24.0340345 41.8353,24.467 C41.616,24.6697672 41.3398714,24.7698534 41.0666571,24.7698534 Z" id="Path"></path>
                </g>
                <g id="Group" transform="translate(6.000000, 10.000000)" fill="#FFFFFF">
                    <path d="M24.7090345,22.9535802 L15.5171897,1.97615267 C14.8441034,0.43878626 12.9247759,-0.252221374 11.2234138,0.434480916 L11.2234138,0.434480916 C9.52603448,1.11544275 8.69725862,2.91507634 9.36925862,4.45100763 L18.564,25.427 L8.13460345,6.0798626" id="Path"></path>
                    <path d="M9.91924138,22.704229 L4.49798276,10.333542 C3.82055172,8.79617557 4.65222414,6.9979771 6.34924138,6.31558015 L6.34924138,6.31558015 C8.04915517,5.62887786 10.0702241,6.27898473 10.7407759,7.81527481" id="Path"></path>
                    <path d="M12.4609655,28.5035267 L9.91924138,22.704229" id="Path"></path>
                    <path d="M18.0618103,7.71266412 C17.3872759,6.18067939 18.3460345,4.32794656 20.2088793,3.57845802 L20.2088793,3.57845802 C22.0644828,2.83148092 24.1210345,3.47046565 24.7926724,5.0038855 L33.6152069,25.1331603 C36.1511379,21.2579924 36.4382586,21.1108931 37.3930345,20.2519771 C39.6516207,18.2281069 43.0717241,19.9968855 41.060431,23.7529389 C38.6505,28.2656565 34.2093621,36.5735344 35.0862931,39.0598702 L19.2186207,46.7757634 C18.4195345,46.0779389 18.8083966,45.5311603 15.5146552,44.1017863 C12.6039828,42.8335038 12.3382241,42.2264504 11.2136379,39.6561603 L0.341431034,14.8502061 C-0.331655172,13.3142748 0.311741379,11.5903435 1.77993103,10.9990763 L1.77993103,10.9990763 C3.24522414,10.4103206 4.73586207,11.2724656 5.40786207,12.8098321" id="Path"></path>
                </g>
                <g id="Group" transform="translate(5.000000, 10.000000)" fill="#000000">
                    <path d="M16.8666667,21.2879562 C16.4348943,21.2879562 16.0242276,21.0313869 15.8410732,20.6007299 L9.60344715,5.95656934 C9.17990244,4.95875912 9.1716748,3.84525547 9.58377236,2.82007299 C10.0237724,1.71934307 10.9195122,0.821167883 12.0416911,0.356569343 C14.2717398,-0.570072993 16.8262439,0.405109489 17.7287805,2.52773723 L24.0855285,17.4569343 C24.3316423,18.0343066 24.0715772,18.7072993 23.5056585,18.9580292 C22.9397398,19.2087591 22.2815285,18.9437956 22.0343415,18.3664234 L15.6775935,3.43576642 C15.2540488,2.44051095 14.0005854,2.00875912 12.8830569,2.47043796 C12.3157073,2.70583942 11.867122,3.14744526 11.6521301,3.68211679 C11.4718374,4.13394161 11.4718374,4.61861314 11.653561,5.04781022 L17.8915447,19.6919708 C18.1376585,20.2693431 17.8775935,20.9408759 17.3116748,21.1916058 C17.1671545,21.2565693 17.0147642,21.2879562 16.8666667,21.2879562 Z" id="Path"></path>
                    <path d="M11.1949593,25.2609489 C10.763187,25.2609489 10.3525203,25.0043796 10.1693659,24.5751825 L4.79099187,11.939781 C4.36744715,10.9419708 4.35921951,9.8270073 4.76988618,8.80036496 C5.20881301,7.70255474 6.10419512,6.80583942 7.22637398,6.34124088 C9.53047154,5.38613139 12.2219837,6.34416058 13.1077073,8.43394161 C13.3523902,9.01277372 13.0923252,9.68430657 12.5249756,9.93357664 C11.9604878,10.1846715 11.3008455,9.91934307 11.0550894,9.34051095 C10.6555122,8.39233577 9.22891057,7.97189781 8.06881301,8.45364964 C7.50003252,8.68905109 7.05144715,9.13065693 6.83895935,9.66240876 C6.65723577,10.1142336 6.65866667,10.600365 6.84182114,11.0310219 L12.2201951,23.6649635 C12.4663089,24.2423358 12.2062439,24.9138686 11.6388943,25.1660584 C11.4954472,25.2310219 11.3444878,25.2609489 11.1949593,25.2609489 Z" id="Path"></path>
                    <path d="M20.3630569,49.6963504 C20.1004878,49.6963504 19.837561,49.6036496 19.6254309,49.4127737 C19.326374,49.1463504 19.1432195,48.8908759 18.995122,48.6857664 C18.7057236,48.2850365 18.3773333,47.8288321 16.2506667,46.8781022 C13.1066341,45.469708 12.655187,44.6554745 11.427122,41.7686131 L0.68396748,16.5346715 C0.23395122,15.4770073 0.211772358,14.2777372 0.625300813,13.2441606 C1.0180813,12.2605839 1.75856911,11.5021898 2.71011382,11.1072993 C4.6944065,10.280292 6.96630894,11.329562 7.88887805,13.4894161 C8.13499187,14.0682482 7.87492683,14.739781 7.30900813,14.9905109 C6.74022764,15.2441606 6.08344715,14.9777372 5.83769106,14.400365 C5.4059187,13.3839416 4.39856911,12.8635036 3.55434146,13.2186131 C3.16442276,13.3810219 2.86,13.6948905 2.69652033,14.1054745 C2.50656911,14.5817518 2.52052033,15.120438 2.7355122,15.6251825 L13.4783089,40.8591241 C14.5418211,43.3609489 14.6784715,43.6817518 17.1492683,44.7883212 C19.6268618,45.8974453 20.2457236,46.570438 20.7962602,47.3346715 C20.9093008,47.4916058 20.9833496,47.5941606 21.0996098,47.699635 C21.5650081,48.1160584 21.6111545,48.8357664 21.2029919,49.3076642 C20.9819187,49.5638686 20.6732033,49.6963504 20.3630569,49.6963504 Z" id="Path"></path>
                    <path d="M36.0356423,41.8485401 C35.5731057,41.8485401 35.1399024,41.5547445 34.9807154,41.0813869 C34.1282602,38.5835766 36.6337561,32.9237226 40.9514797,24.6040146 C41.5453008,23.4635036 41.5832195,22.4941606 41.052,22.0733577 C40.6187967,21.7339416 39.8013984,21.7383212 39.0662764,22.4226277 L38.8931382,22.5810219 C38.1580163,23.2554745 37.7892033,23.5930657 35.5198049,27.1616788 C35.2947967,27.5138686 34.8894959,27.6919708 34.4899187,27.6777372 C34.079252,27.6419708 33.7215285,27.379927 33.5580488,26.9948905 L24.8442602,6.51970803 C24.4278699,5.54160584 23.0180813,5.15109489 21.7603252,5.67153285 C21.0531057,5.96386861 20.504,6.48832117 20.256813,7.10875912 C20.135187,7.41386861 20.0346667,7.8770073 20.2428618,8.36350365 C20.4900488,8.94087591 20.2317724,9.61386861 19.6672846,9.86605839 C19.0970732,10.1156934 18.4402927,9.85474453 18.1945366,9.27737226 C17.7878049,8.32919708 17.7849431,7.25437956 18.1863089,6.24927007 C18.659935,5.06313869 19.6561951,4.0810219 20.9182439,3.55766423 C23.316065,2.56678832 25.9907642,3.49051095 26.8961626,5.61058394 L34.7850407,24.1532847 C36.1794472,22.0434307 36.635187,21.5843066 37.4007154,20.8828467 L37.565626,20.730292 C39.0244228,19.3872263 41.0673821,19.1948905 42.4270894,20.2726277 C43.5589268,21.1737226 44.2840325,23.0613139 42.9261138,25.670073 C41.1403577,29.1156934 36.3894309,38.269708 37.0909268,40.3343066 C37.2948293,40.9288321 36.9861138,41.5773723 36.4033821,41.7843066 C36.283187,41.8284672 36.1586992,41.8485401 36.0356423,41.8485401 Z" id="Path"></path>
                </g>
            </g>
        </g>
    </g>
</svg>