<?xml version="1.0" encoding="UTF-8"?>
<svg width="57px" height="42px" viewBox="0 0 57 42" version="1.1" xmlns="http://www.w3.org/2000/svg" xmlns:xlink="http://www.w3.org/1999/xlink">
    <!-- Generator: Sketch 55.1 (78136) - https://sketchapp.com -->
    <title>tc_donate_white FINAL</title>
    <desc>Created with Sketch.</desc>
    <g id="Page-1" stroke="none" stroke-width="1" fill="none" fill-rule="evenodd">
        <g id="Artboard" transform="translate(-221.000000, -2820.000000)" fill-rule="nonzero">
            <g id="tc_donate_white-FINAL" transform="translate(221.000000, 2820.000000)">
                <g id="Group">
                    <path d="M41.6023193,12.4778131 C41.6023193,6.49514019 36.6237143,1.64018692 30.4866387,1.64018692 C26.8041765,1.64018692 23.5491849,3.80158879 21.5292689,6.4896729 C19.5050168,3.8012243 16.2500252,1.64018692 12.567563,1.64018692 C6.42904202,1.64018692 1.45477311,6.49514019 1.45477311,12.4778131 C1.45477311,15.2457196 2.52615966,17.7599439 4.27506723,19.6764112 C9.40868908,27.4672991 21.554563,37.5504393 21.554563,37.5504393 L21.6662185,37.5504393 C21.6662185,37.5504393 34.8863697,26.5874299 39.5824034,18.6955794 C40.85,16.9343832 41.6023193,14.7959439 41.6023193,12.4778131 Z" id="Path" fill="#FFFFFF"></path>
                    <path d="M21.6662185,38.9172617 L21.554563,38.9172617 C21.2412773,38.9172617 20.9363025,38.8075514 20.693479,38.6067196 C20.1937395,38.1908411 8.42041176,28.3770561 3.20512605,20.5205607 C1.20219328,18.2880841 0.0997310924,15.4363458 0.0997310924,12.4778131 C0.0997310924,5.74903738 5.69334454,0.273364486 12.567563,0.273364486 C15.8138824,0.273364486 19.0645378,1.78525234 21.5278235,4.38513084 C23.9878571,1.78525234 27.2374286,0.273364486 30.4866387,0.273364486 C37.3619412,0.273364486 42.9573613,5.74903738 42.9573613,12.4778131 C42.9573613,15.002243 42.1681849,17.4297196 40.6776387,19.4985421 C35.9830504,27.4020561 23.0732941,38.1529346 22.5258571,38.6070841 C22.284479,38.8075514 21.9809496,38.9172617 21.6662185,38.9172617 Z M12.567563,3.00700935 C7.18678151,3.00700935 2.80981513,7.25545794 2.80981513,12.4778131 C2.80981513,14.7842804 3.6849916,17.0112897 5.27129412,18.7495234 C5.31935294,18.8023738 5.36452101,18.8592336 5.40246218,18.9190093 C9.61429412,25.310271 18.8343613,33.4328411 21.6105714,35.8122056 C24.5266218,33.3162056 34.5568235,24.4847103 38.4188739,17.9921215 C39.6384118,16.2921589 40.246916,14.4212523 40.246916,12.4778131 C40.246916,7.25545794 35.8670588,3.00700935 30.4862773,3.00700935 C27.5799832,3.00700935 24.6357479,4.61730841 22.6071597,7.31523364 C22.3516891,7.6571215 21.9524034,7.85613084 21.5289076,7.85613084 L21.5289076,7.85613084 C21.1054118,7.85613084 20.7046807,7.65675701 20.4492101,7.31669159 C18.4180924,4.61730841 15.4724118,3.00700935 12.567563,3.00700935 Z" id="Shape" fill="#231F20"></path>
                </g>
                <g id="Group" transform="translate(24.000000, 8.000000)">
                    <path d="M31.5249355,17.0913978 C31.5249355,25.6656129 24.7844194,32.6089247 16.4595484,32.6089247 C8.14283871,32.6089247 1.39841935,25.6656129 1.39841935,17.0913978 C1.39841935,8.52156989 8.14319355,1.5724086 16.4595484,1.5724086 C24.7840645,1.5724086 31.5249355,8.5212043 31.5249355,17.0913978 Z" id="Path" fill="#FFFFFF"></path>
                    <path d="M16.4591935,33.9798925 C7.4203871,33.9798925 0.0674193548,26.4052043 0.0674193548,17.0913978 C0.0674193548,7.7775914 7.42074194,0.20144086 16.4591935,0.20144086 C25.5004839,0.20144086 32.8552258,7.7775914 32.8552258,17.0913978 C32.8552258,26.4052043 25.5008387,33.9798925 16.4591935,33.9798925 Z M16.4591935,2.94337634 C8.88870968,2.94337634 2.72870968,9.28967742 2.72870968,17.0913978 C2.72870968,24.8931183 8.88835484,31.237957 16.4591935,31.237957 C24.032871,31.237957 30.1939355,24.8931183 30.1939355,17.0913978 C30.1939355,9.28967742 24.032871,2.94337634 16.4591935,2.94337634 Z" id="Shape" fill="#231F20"></path>
                </g>
                <path d="M45.0776556,19.3733576 C43.8663074,18.2310828 42.168111,17.4789964 40.7843954,17.2192382 L40.7843954,22.3585563 C44.2412959,23.2153542 46,25.2144269 46,27.2642021 C46,29.0810399 44.9331537,31.5210036 40.7843954,32.1955666 L40.7843954,35 L38.4206143,35 L38.4206143,32.1955666 C36.4318217,32.0148013 34.4987598,31.1851917 33,30.3541124 L33,27.1620624 C35.5377408,29.2360866 37.2387237,29.602026 38.4206143,29.8356982 L38.4206143,24.2532848 C34.1540252,23.1639169 33.0294577,21.1644768 33.0294577,19.5298739 C33.0294577,17.6854803 34.6436599,15.3248771 38.4206143,14.9357909 L38.4206143,14 L40.7843954,14 L40.7843954,14.9357909 C42.628686,15.1940795 44.1274459,15.7396819 45.0776556,16.4656822 L45.0776556,19.3733576 Z M38.4206143,17.2192382 C36.6340448,17.3757545 35.8251523,18.5955526 35.8251523,19.3733576 C35.8251523,20.5156324 36.7769544,21.0869535 38.4206143,21.6839932 L38.4206143,17.2192382 Z M40.7843954,29.8088773 C42.4543283,29.4444075 43.1760419,28.6923212 43.1760419,27.5742954 C43.1760419,26.2251693 42.168509,25.7600294 40.7843954,25.1100828 L40.7843954,29.8088773 Z" id="Shape" fill="#231F20"></path>
            </g>
        </g>
    </g>
</svg>