<?xml version="1.0" encoding="UTF-8"?>
<svg width="191px" height="27px" viewBox="0 0 191 27" version="1.1" xmlns="http://www.w3.org/2000/svg" xmlns:xlink="http://www.w3.org/1999/xlink">
    <!-- Generator: Sketch 55.1 (78136) - https://sketchapp.com -->
    <title>tc_new logo white</title>
    <desc>Created with Sketch.</desc>
    <g id="Page-1" stroke="none" stroke-width="1" fill="none" fill-rule="evenodd">
        <g id="tc_new-logo-white" transform="translate(-0.000000, 0.000000)" fill="#FFFFFF" fill-rule="nonzero">
            <path d="M22.0484462,0.931034483 L24.2243902,2.73142668 L24.2243902,7.16263672 L15.3395111,7.16263672 L15.3395111,27 L10.5164305,27 L8.70323413,24.9918702 L8.70323413,7.16263672 L1.95851235,7.16263672 L0,5.18965448 L0,0.931034483 L22.0484462,0.931034483 Z M0.616508454,1.51962424 L0.616508454,4.91214647 L9.31974258,4.91214647 L9.31974258,24.7489852 L12.9824643,24.7489852 L12.9824643,4.91214647 L21.8673434,4.91214647 L21.8673434,1.51962424 L0.616508454,1.51962424 Z" id="Shape"></path>
            <path d="M35.2908952,0.931034483 C38.4261067,0.931034483 40.2178033,1.48500131 41.802409,2.52368912 C44.3518933,4.18506501 45.2132265,6.67791574 45.2132265,8.85916013 C45.2132265,12.7369279 42.6982573,14.5714185 41.8369241,15.2292541 C43.8006813,17.0983675 44.5589842,18.2063012 45.7989536,20.2144309 C48.7275894,24.9226244 49.0722257,25.4419683 50.3121951,27 L43.0428936,27 C42.3541362,26.2036727 41.9749847,25.7535746 40.424379,22.8457734 C39.5285307,21.1838729 37.7028341,17.4797443 35.1533498,17.7562031 L35.1533498,27 L30.5025629,27 L28.8829268,25.0616407 L28.8829268,0.931034483 L35.2908952,0.931034483 Z M29.4681388,1.51962424 L29.4681388,24.7495098 L32.9134714,24.7495098 L32.9134714,15.3331228 C36.8755009,15.1600082 37.9094098,16.7526628 42.2845907,24.7495098 L46.3156505,24.7495098 C45.5923779,23.7113465 45.3167719,23.2958714 44.1108025,21.114627 C41.2166819,15.8870897 40.424379,15.4023687 38.8397733,14.3636809 C41.5613181,13.1865014 43.0774087,11.1437487 43.0774087,8.20132452 C43.0774087,5.22427741 41.2857121,3.38926229 39.4940155,2.45444326 C37.8058644,1.55424717 35.1183195,1.51962424 34.153956,1.51962424 L29.4681388,1.51962424 Z M34.7396832,4.77417936 C36.1522284,4.77417936 39.597561,4.80880228 39.597561,8.44368501 C39.597561,9.62086452 39.0808641,12.0093219 35.4289558,12.0093219 L32.9134714,12.0093219 L32.9134714,4.77417936 L34.7396832,4.77417936 Z M35.1528346,11.4212567 C35.6010163,11.4212567 38.6671975,11.5943713 38.6671975,9.13614354 C38.6671975,7.05929253 36.3242889,7.0246696 35.1528346,7.0246696 L35.1528346,11.4212567 Z" id="Shape"></path>
            <path d="M55.6597679,0 L57.6893409,1.80482574 L57.6893409,14.2959786 C57.6893409,15.3930295 57.6893409,16.7378016 58.1163392,17.7286863 C58.8643849,19.4621984 60.5020992,20.5238606 62.4246565,20.5238606 C64.1693865,20.5238606 65.6298059,19.6745308 66.3773192,18.4010724 C67.1248325,17.1624665 67.1248325,15.2514745 67.1248325,14.508311 L67.1248325,0 L71.3974778,0 L73.604878,1.80482574 L73.604878,15.4284182 C73.604878,18.6134048 73.1422078,20.9844504 71.2196505,23.1780161 C69.3322328,25.3367292 66.3411149,27 62.1398134,27 C56.2289215,27 52.9529606,23.6734584 51.8492604,20.3474531 C51.4930735,19.2504021 51.2439024,17.941555 51.2439024,15.075067 L51.2439024,0 L55.6597679,0 Z M51.8497928,0.601608579 L51.8497928,13.4820375 C51.8497928,13.8713137 51.8497928,16.0294906 52.2054473,17.8697051 C52.66865,20.3115282 55.3749248,24.6991957 61.784159,24.6991957 C63.9564198,24.6991957 67.2675202,24.2396783 69.5111248,21.5849866 C70.7926522,20.0991957 71.2915268,18.1882038 71.2915268,14.8268097 L71.2915268,0.601608579 L67.7307229,0.601608579 L67.7307229,14.5436997 C67.7307229,15.5345845 67.7307229,17.4450402 66.9475377,18.7190349 C66.199492,19.922252 64.7396049,21.3024129 61.784159,21.3024129 C55.3749248,21.3024129 55.3749248,15.8176944 55.3749248,13.9067024 L55.3749248,0.601608579 L51.8497928,0.601608579 Z" id="Shape"></path>
            <path d="M91.748175,0.931034483 L93.9589969,2.66218082 L93.9589969,7.09339086 L85.7214724,7.09339086 L85.7214724,10.7634211 L91.4634237,10.7634211 L93.5318699,12.4594199 L93.5318699,16.9257775 L85.7220057,16.9257775 L85.7220057,20.8376436 L92.06972,20.8376436 L94.102439,22.5336424 L94.102439,27 L80.8716352,27 L79.195122,24.9918702 L79.195122,0.931034483 L91.748175,0.931034483 Z M79.8014183,1.51962424 L79.8014183,24.7495098 L91.7844355,24.7495098 L91.7844355,21.4262334 L83.3320144,21.4262334 L83.3320144,14.6752872 L91.2133331,14.6752872 L91.2133331,11.3520109 L83.3320144,11.3520109 L83.3320144,4.84342521 L91.6415266,4.84342521 L91.6415266,1.52014883 L79.8014183,1.52014883 L79.8014183,1.51962424 Z" id="Shape"></path>
            <path d="M120.835287,8.52241585 C119.079401,7.71897359 115.781957,6.18195362 111.589692,6.18195362 C109.833806,6.18195362 108.185084,6.42647952 106.572798,7.82377041 C104.530248,9.60531629 104.171784,11.9452493 104.171784,13.4822692 C104.171784,17.429616 106.751763,20.7825848 111.625592,20.7825848 C114.635836,20.7825848 117.359415,19.8394135 118.936337,19.3154294 L121.121951,21.0271107 L121.121951,25.078725 C118.004544,26.23149 114.743536,27 111.446628,27 C103.956384,27 97.8292683,22.0046851 97.8292683,13.4822692 C97.8292683,9.25599357 99.2261541,6.18195362 101.699505,3.77215612 C104.888712,0.663183894 108.436385,0 111.518428,0 C115.0302,0 117.789143,0.80344226 118.971701,1.15276498 L120.835823,2.7596495 L120.835823,8.52241585 L120.835287,8.52241585 Z M118.506072,1.60635524 C116.176857,0.907709799 113.739943,0.59331935 111.338928,0.59331935 C103.132826,0.59331935 98.438497,6.84566679 98.438497,12.6089624 C98.438497,16.9051026 101.48464,24.7294023 111.733292,24.7294023 C115.029664,24.7294023 117.466579,23.8910278 118.792737,23.5067728 L118.792737,19.9791426 C116.714286,20.6428557 114.456336,21.3764335 111.518428,21.3764335 C104.064619,21.3764335 102.057969,15.5776763 102.057969,12.6438947 C102.057969,9.7445161 103.992819,3.91135593 111.625592,3.91135593 C114.456336,3.91135593 116.74965,4.61000137 118.506072,5.13398545 L118.506072,1.60635524 L118.506072,1.60635524 Z" id="Shape"></path>
            <path d="M131.174732,0.931034483 L133.332983,2.59290153 L133.332983,20.7333764 L140.429614,20.7333764 L142.55122,22.4644879 L142.55122,27 L128.394603,27 L126.712195,24.9919107 L126.712195,0.931034483 L131.174732,0.931034483 Z M127.333526,1.51961239 L127.333526,24.7490305 L140.173096,24.7490305 L140.173096,21.3219543 L130.954859,21.3219543 L130.954859,1.51961239 L127.333526,1.51961239 Z" id="Shape"></path>
            <path d="M158.132899,0 L160.518775,1.20380838 L169.570732,26.0689655 L164.027294,26.0689655 L162.202738,24.4868174 L160.939504,21.047886 L152.414245,21.047886 L150.519918,26.0689655 L146.379258,26.0689655 L144.414634,24.1433932 L153.782399,0.000521129168 L158.132899,0.000521129168 L158.132899,0 Z M154.203128,0.584185798 L145.186319,23.8328003 L148.94035,23.8328003 L150.834677,18.9149043 L160.868683,18.9149043 L162.587794,23.8328003 L166.307201,23.8328003 L157.956634,0.584185798 L154.203128,0.584185798 Z M159.676794,15.7167346 L152.063288,15.7167346 L156.028208,5.60578646 L159.676794,15.7167346 Z M156.799368,9.45745215 L154.659529,15.1320277 L158.799664,15.1320277 L156.799368,9.45745215 Z" id="Shape"></path>
            <path d="M179.925993,0.931034483 C181.849037,0.931034483 184.199069,1.03490326 186.335607,1.96972229 C189.931997,3.56237692 191,6.53942403 191,8.85916013 C191,11.4558796 189.6823,14.3983038 186.656114,15.8870897 C184.590918,16.8911546 181.920379,16.9950233 180.709692,17.0296463 L180.709692,27 L175.938286,27 L174.229268,25.0264932 L174.229268,0.931034483 L179.925993,0.931034483 Z M174.834612,1.51962424 L174.834612,24.7495098 L178.395331,24.7495098 L178.395331,14.8830248 C182.489519,14.8830248 184.341753,14.8830248 186.335607,13.4293865 C187.83113,12.3560757 188.899133,10.5556835 188.899133,8.23647204 C188.899133,4.94729399 186.726924,2.45496785 183.629397,1.83175517 C183.059724,1.72788639 182.02686,1.52014883 180.068677,1.52014883 L174.834612,1.52014883 L174.834612,1.51962424 Z M180.709692,4.80880228 C182.312229,4.80880228 183.166737,4.87804814 184.128259,5.57050667 C185.053578,6.26296521 185.481098,7.23240716 185.481098,8.27057037 C185.481098,10.9019128 183.487245,11.5938468 180.816705,11.5938468 L178.395331,11.5938468 L178.395331,4.80880228 L180.709692,4.80880228 Z M180.709692,11.0057816 C182.525723,10.9711587 184.412563,10.9711587 184.412563,8.92840598 C184.412563,6.92027623 182.774888,7.05929253 180.709692,7.05929253 L180.709692,11.0057816 Z" id="Shape"></path>
        </g>
    </g>
</svg>