<?xml version="1.0" encoding="UTF-8"?>
<svg width="46px" height="39px" viewBox="0 0 46 39" version="1.1" xmlns="http://www.w3.org/2000/svg" xmlns:xlink="http://www.w3.org/1999/xlink">
    <!-- Generator: Sketch 55.1 (78136) - https://sketchapp.com -->
    <title>tc_heart_white</title>
    <desc>Created with Sketch.</desc>
    <g id="Page-1" stroke="none" stroke-width="1" fill="none" fill-rule="evenodd">
        <g id="Artboard" transform="translate(-227.000000, -2503.000000)" fill-rule="nonzero">
            <g id="tc_heart_white" transform="translate(227.000000, 2503.000000)">
                <path d="M45,12.8636886 C45,6.86368857 39.671195,2 33.0945728,2 C29.151986,2 25.6665639,4.43402043 23.4985276,7.12881581 C21.3360127,4.43402043 17.847646,2 13.9024825,2 C7.32733265,2 2,6.86368857 2,12.8636886 C2,15.6364626 3.14880158,18.1582542 5.01647834,20.0779786 C10.5175484,27.8885329 23.5228214,38 23.5228214,38 L23.6523883,38 C23.6523883,38 37.8079353,27.0061053 42.8463191,19.0976244 C44.1935199,17.3291422 45,15.1870882 45,12.8636886 Z" id="Path" fill="#FFFFFF"></path>
                <path d="M23.6345721,39 L22.5419241,39 L22.1645109,38.7059237 C21.6254022,38.2865453 8.95690154,28.3759906 3.34158623,20.4476199 C1.18515122,18.1885292 0,15.3047547 0,12.3121171 C0,5.52242455 5.98976834,0 13.3522844,0 C16.7530727,0 20.2641248,1.64098241 23,4.4549823 C25.7403153,1.64098241 29.2509974,0 32.6447555,0 C40.0102317,0 46,5.52242455 46,12.3121171 C46,14.8579779 45.1560006,17.3125105 43.556065,19.4141516 C38.4887387,27.3925701 24.6014157,38.2478222 24.0119852,38.7059237 L23.6345721,39 Z M13.3522844,2.73984151 C7.52014157,2.73984151 2.77509653,7.03372113 2.77509653,12.3121171 C2.77509653,14.6296577 3.7145592,16.8741359 5.42142857,18.6309223 L5.55870335,18.7978699 C10.1346525,25.3062721 20.1916023,33.5973979 23.0880631,35.9233406 C26.1306789,33.4815939 37.0704794,24.4700725 41.2723456,17.8619401 C42.5733108,16.1453381 43.2249035,14.2588658 43.2249035,12.3124824 C43.2249035,7.03408644 38.4798584,2.74020682 32.6447555,2.74020682 C29.6224903,2.74020682 26.421139,4.47836228 24.0837677,7.38661271 L22.9955598,8.74228629 L21.908462,7.38515146 C19.5803411,4.47653572 16.3815798,2.73984151 13.3522844,2.73984151 Z" id="Shape" fill="#231F20"></path>
            </g>
        </g>
    </g>
</svg>