<?xml version="1.0" encoding="UTF-8"?>
<svg width="45px" height="44px" viewBox="0 0 45 44" version="1.1" xmlns="http://www.w3.org/2000/svg" xmlns:xlink="http://www.w3.org/1999/xlink">
    <!-- Generator: Sketch 55.1 (78136) - https://sketchapp.com -->
    <title>tc_premium_white FINAL</title>
    <desc>Created with Sketch.</desc>
    <g id="Page-1" stroke="none" stroke-width="1" fill="none" fill-rule="evenodd">
        <g id="Artboard" transform="translate(-230.000000, -2699.000000)" fill-rule="nonzero">
            <g id="tc_premium_white-FINAL" transform="translate(230.000000, 2699.000000)">
                <g id="Group">
                    <path d="M43.2866803,22.045082 C43.2866803,33.2816721 33.9790574,42.3882295 22.4797131,42.3882295 C10.9932787,42.3882295 1.67422131,33.2816721 1.67422131,22.045082 C1.67422131,10.811377 10.9936475,1.7004918 22.4797131,1.7004918 C33.9790574,1.7004918 43.2866803,10.8110164 43.2866803,22.045082 Z" id="Path" fill="#FFFFFF"></path>
                    <path d="M22.4797131,43.7406885 C10.2441393,43.7406885 0.29102459,34.0087541 0.29102459,22.045082 C0.29102459,10.0814098 10.2441393,0.348032787 22.4797131,0.348032787 C34.7167623,0.348032787 44.669877,10.0814098 44.669877,22.045082 C44.669877,34.0087541 34.7167623,43.7406885 22.4797131,43.7406885 Z M22.4797131,3.05295082 C11.770082,3.05295082 3.05741803,11.572 3.05741803,22.045082 C3.05741803,32.5167213 11.770082,41.0357705 22.4797131,41.0357705 C33.1908197,41.0357705 41.9034836,32.5167213 41.9034836,22.045082 C41.9034836,11.572 33.1908197,3.05295082 22.4797131,3.05295082 Z" id="Shape" fill="#231F20"></path>
                </g>
                <path d="M29.8635431,15.9073737 C28.374202,14.4389078 26.2797585,13.4704813 24.5787606,13.1372402 L24.5787606,19.7458705 C28.8351271,20.8476646 31,23.417569 31,26.0543349 C31,28.3895124 29.6865479,31.5280961 24.5787606,32.3948076 L24.5787606,36 L21.6690327,36 L21.6690327,32.3948076 C19.221705,32.1600806 16.8437003,31.0945626 15,30.0247767 L15,25.9209674 C18.1228596,28.5897416 20.2143532,29.0577729 21.6690327,29.3579388 L21.6690327,22.1809847 C16.4189118,20.7804473 15.0361365,18.210543 15.0361365,16.1086699 C15.0361365,13.7386391 17.0225392,10.7017703 21.6690327,10.2003082 L21.6690327,9 L24.5787606,9 L24.5787606,10.2003082 C26.8487244,10.5349719 28.6924247,11.2352407 29.8635431,12.1702363 L29.8635431,15.9073737 Z M21.6690327,13.1372402 C19.4680233,13.3385363 18.4772188,14.9072947 18.4772188,15.9073737 C18.4772188,17.3772623 19.6468623,18.1106062 21.6690327,18.8777365 L21.6690327,13.1372402 Z M24.5787606,29.324508 C26.6355926,28.8578993 27.5227812,27.8880503 27.5227812,26.4544377 C27.5227812,24.7192365 26.2797585,24.1178377 24.5787606,23.2827788 L24.5787606,29.324508 Z" id="Shape" fill="#231F20"></path>
            </g>
        </g>
    </g>
</svg>