<?xml version="1.0" encoding="UTF-8"?>
<svg width="28px" height="28px" viewBox="0 0 28 28" version="1.1" xmlns="http://www.w3.org/2000/svg" xmlns:xlink="http://www.w3.org/1999/xlink">
    <!-- Generator: Sketch 55.1 (78136) - https://sketchapp.com -->
    <title>facebook_icon</title>
    <desc>Created with Sketch.</desc>
    <g id="Page-1" stroke="none" stroke-width="1" fill="none" fill-rule="evenodd">
        <g id="Artboard" transform="translate(-1134.000000, -3068.000000)" fill="#262626" fill-rule="nonzero">
            <g id="facebook_icon" transform="translate(1134.000000, 3068.000000)">
                <path d="M28,14.086004 C28,6.30515838 21.7331726,0 14.0003709,0 C6.26979418,0 0,6.30515838 0,14.086004 C0,21.11632 5.11867235,26.9433258 11.8129056,28 L11.8129056,18.1567368 L8.25792694,18.1567368 L8.25792694,14.086004 L11.8129056,14.086004 L11.8129056,10.981464 C11.8129056,7.45138121 13.9032079,5.5012726 17.1005006,5.5012726 C18.6317449,5.5012726 20.2338216,5.77607505 20.2338216,5.77607505 L20.2338216,9.24198126 L18.4700538,9.24198126 C16.7287224,9.24198126 16.1863527,10.3277588 16.1863527,11.4443186 L16.1863527,14.086004 L20.0708326,14.086004 L19.4487298,18.1567368 L16.1863527,18.1567368 L16.1863527,28 C22.8791025,26.9433258 28,21.11632 28,14.086004" id="path3744"></path>
            </g>
        </g>
    </g>
</svg>