<?xml version="1.0" encoding="UTF-8"?>
<svg width="26px" height="27px" viewBox="0 0 26 27" version="1.1" xmlns="http://www.w3.org/2000/svg" xmlns:xlink="http://www.w3.org/1999/xlink">
    <!-- Generator: Sketch 55.1 (78136) - https://sketchapp.com -->
    <title>linkedin_icon</title>
    <desc>Created with Sketch.</desc>
    <g id="Page-1" stroke="none" stroke-width="1" fill="none" fill-rule="evenodd">
        <g id="Artboard" transform="translate(-1025.000000, -3069.000000)" fill="#262626" fill-rule="nonzero">
            <g id="linkedin_icon" transform="translate(1025.000000, 3069.000000)">
                <g id="g5064" transform="translate(13.000000, 13.500000) scale(-1, 1) rotate(-180.000000) translate(-13.000000, -13.500000) ">
                    <g id="g5066" transform="translate(0.196226, 0.127358)">
                        <path d="M21.8773321,3.94836792 L18.0234698,3.94836792 L18.0234698,10.8943726 C18.0234698,12.9428066 17.1827132,13.5748613 16.102634,13.5748613 C14.9578981,13.5748613 13.8368811,12.6808557 13.8368811,10.8428689 L13.8368811,3.94836792 L9.98086038,3.94836792 L9.98086038,16.6643236 L13.6888528,16.6643236 L13.6888528,14.9046877 L13.7384245,14.9046877 C14.1113774,15.6867453 15.4127755,17.0225321 17.4025849,17.0225321 C19.5526377,17.0225321 21.8773321,15.69645 21.8773321,11.8152509 L21.8773321,3.94836792 L21.8773321,3.94836792 Z M5.73822453,18.4381217 C4.51085283,18.4381217 3.51630377,19.4074981 3.51630377,20.7342934 C3.51630377,22.0625915 4.51085283,23.0342094 5.73822453,23.0342094 C6.9670434,23.0342094 7.9608566,22.0625915 7.9608566,20.7342934 C7.9608566,19.4074981 6.9670434,18.4381217 5.73822453,18.4381217 Z M7.66624717,3.95807264 L3.81093774,3.95807264 L3.81093774,16.674767 L7.66624717,16.674767 L7.66624717,3.95807264 Z M23.7730019,26.6408236 L1.91669057,26.6408236 C0.871122642,26.6408236 0.023890566,25.7625085 0.023890566,24.6774651 L0.023890566,1.98052642 C0.023890566,0.89474434 0.871122642,0.0149264151 1.91669057,0.0149264151 L23.7730019,0.0149264151 C24.8192811,0.0149264151 25.6643547,0.89474434 25.6643547,1.98052642 L25.6643547,24.6774396 C25.6643547,25.762483 24.8192811,26.6408236 23.7730019,26.6408236 L23.7730019,26.6408236 Z" id="path5068"></path>
                    </g>
                </g>
            </g>
        </g>
    </g>
</svg>