<?xml version="1.0" encoding="UTF-8"?>
<svg width="29px" height="23px" viewBox="0 0 29 23" version="1.1" xmlns="http://www.w3.org/2000/svg" xmlns:xlink="http://www.w3.org/1999/xlink">
    <!-- Generator: Sketch 55.1 (78136) - https://sketchapp.com -->
    <title>twitter_icon</title>
    <desc>Created with Sketch.</desc>
    <g id="Page-1" stroke="none" stroke-width="1" fill="none" fill-rule="evenodd">
        <g id="Artboard" transform="translate(-1189.000000, -3073.000000)" fill="#262626" fill-rule="nonzero">
            <g id="twitter_icon" transform="translate(1189.000000, 3073.000000)">
                <path d="M9.12021685,23 C20.0642863,23 26.0492855,14.1523423 26.0492855,6.47953145 C26.0492855,6.22854992 26.0448971,5.97849932 26.0321135,5.72975205 C27.1948458,4.90940736 28.2047476,3.88686241 29,2.72318689 C27.9349571,3.18493334 26.7886336,3.49698456 25.5850703,3.63811513 C26.8126744,2.91812581 27.756178,1.78126138 28.2011224,0.424136452 C27.0504105,1.09031741 25.7781594,1.5732893 24.422338,1.83432499 C23.336498,0.705652832 21.7914035,0 20.0785962,0 C16.791693,0 14.1287041,2.59937182 14.1287041,5.80683391 C14.1287041,6.26131902 14.1794568,6.70426047 14.283061,7.13044499 C9.3371559,6.88746954 4.95258303,4.57762019 2.01904048,1.06332014 C1.50617138,1.92146101 1.21253092,2.91793963 1.21253092,3.98125976 C1.21253092,5.99581482 2.26192826,7.77409719 3.8598742,8.81414382 C2.88431628,8.78509848 1.96752461,8.52331803 1.16559424,8.08763792 C1.16483104,8.11165618 1.16483104,8.13716395 1.16483104,8.16248553 C1.16483104,10.9748565 3.21592584,13.3219435 5.93634533,13.855 C5.4393126,13.9873797 4.91156113,14.0601792 4.36816411,14.0601792 C3.98580188,14.0601792 3.61317043,14.022383 3.25026975,13.954052 C4.00755303,16.2611085 6.20384626,17.9395941 8.80959524,17.9883754 C6.77109322,19.5439768 4.20732012,20.4728692 1.4184036,20.4728692 C0.939115217,20.4728692 0.465169219,20.4466166 0,20.3928083 C2.63169772,22.0392695 5.75966498,23 9.12021685,23" id="Path"></path>
            </g>
        </g>
    </g>
</svg>