<?xml version="1.0" encoding="UTF-8"?>
<svg width="29px" height="29px" viewBox="0 0 29 29" version="1.1" xmlns="http://www.w3.org/2000/svg" xmlns:xlink="http://www.w3.org/1999/xlink">
    <!-- Generator: Sketch 55.1 (78136) - https://sketchapp.com -->
    <title>instagram_icon</title>
    <desc>Created with Sketch.</desc>
    <g id="Page-1" stroke="none" stroke-width="1" fill="none" fill-rule="evenodd">
        <g id="Artboard" transform="translate(-1078.000000, -3068.000000)" fill="#262626" fill-rule="nonzero">
            <g id="instagram_icon" transform="translate(1078.000000, 3068.000000)">
                <path d="M14.4996296,0 C10.56287,0 10.069374,0.0163192122 8.52212905,0.0860795698 C6.9785886,0.158062684 5.92482065,0.402223936 5.00241988,0.75991675 C4.05032613,1.1309651 3.24071305,1.62669679 2.43406355,2.43336742 C1.62815496,3.23929713 1.13169536,4.04744959 0.762879433,5.00030921 C0.403695195,5.92349407 0.159540341,6.97801155 0.0875591131,8.52085153 C0.0178005834,10.0666552 0,10.5601641 0,14.5 C0,18.4368912 0.0178195808,18.9311221 0.0875591131,20.4776666 C0.159540341,22.0212475 0.403695195,23.075784 0.762860435,23.998209 C1.13167637,24.9518095 1.62813597,25.759962 2.43404456,26.5666326 C3.24069405,27.3718214 4.05030714,27.868294 5.00240088,28.2386014 C5.92482065,28.5955533 6.9785696,28.8419373 8.52211005,28.9124386 C10.069355,28.9829399 10.562851,29 14.4996106,29 C18.4386118,29 18.9328297,28.9829399 20.477871,28.9124386 C22.0214114,28.8419373 23.0751793,28.5955533 23.9990809,28.2386014 C24.9526565,27.868294 25.7607878,27.3718214 26.5666963,26.5666326 C27.3733458,25.759962 27.8683236,24.9518095 28.2386214,23.998209 C28.5977866,23.075765 28.8434233,22.0212475 28.9139227,20.4776666 C28.9844221,18.9311221 29,18.4368722 29,14.5 C29,10.5601641 28.9844221,10.0666742 28.9139227,8.52085153 C28.8434233,6.97801155 28.5977866,5.92347507 28.2386214,5.00030921 C27.8683236,4.04744959 27.3733458,3.23929713 26.5666963,2.43336742 C25.7607878,1.62669679 24.9526565,1.1309651 23.9990809,0.75991675 C23.0751793,0.402223936 22.0214114,0.158062684 20.477871,0.0860795698 C18.9328487,0.0163192122 18.4386308,0 14.4996296,0 L14.4996296,0 Z M14.4996296,2.61221383 C18.3725768,2.61221383 18.8304526,2.62631028 20.3591561,2.69755248 C21.7735711,2.76062557 22.5408959,2.99735863 23.0521925,3.19550693 C23.7297165,3.45821015 24.21208,3.77361359 24.7189122,4.27897723 C25.2265043,4.78806446 25.5411396,5.27118153 25.8045768,5.94798239 C26.0027199,6.45855145 26.2394468,7.22663731 26.3025182,8.64034843 C26.3730176,10.169092 26.3878546,10.6269608 26.3878546,14.5000285 C26.3878546,18.3715954 26.3730176,18.8302241 26.3025182,20.3582077 C26.2394468,21.7726598 26.0027199,22.5400047 25.8045768,23.0513147 C25.5411396,23.7273746 25.2264853,24.2112326 24.7189122,24.7180781 C24.212061,25.2256835 23.7297165,25.5395861 23.0521925,25.8030302 C22.5408959,26.0019194 21.7735711,26.2371707 20.3591561,26.3024665 C18.8319344,26.371486 18.3725958,26.3878052 14.4996296,26.3878052 C10.6274232,26.3878052 10.1703073,26.371486 8.64086293,26.3024665 C7.22792975,26.2371517 6.45986402,26.0019194 5.94930833,25.8030302 C5.27178431,25.5395861 4.7886799,25.2256645 4.2818477,24.7180781 C3.77351471,24.2112136 3.46036123,23.7273746 3.19692399,23.0513147 C2.99729909,22.5400047 2.76279493,21.7726598 2.69750079,20.3582077 C2.62700136,18.8302051 2.61290528,18.3715954 2.61290528,14.5000285 C2.61290528,10.6269798 2.62700136,10.169092 2.69750079,8.64034843 C2.76281392,7.22663731 2.99729909,6.45855145 3.19692399,5.94798239 C3.46036123,5.27118153 3.77353371,4.78806446 4.2818477,4.27897723 C4.78869889,3.7735946 5.27178431,3.45821015 5.94930833,3.19550693 C6.45986402,2.99735863 7.22792975,2.76062557 8.64086293,2.69755248 C10.1703073,2.62631028 10.6274232,2.61221383 14.4996296,2.61221383 L14.4996296,2.61221383 Z" id="path3798"></path>
                <path d="M14.4988805,19.3688138 C11.8093873,19.3688138 9.63118616,17.1891201 9.63118616,14.5003732 C9.63118616,11.8116262 11.8093873,9.63118616 14.4988805,9.63118616 C17.1891201,9.63118616 19.3688138,11.8116262 19.3688138,14.5003732 C19.3688138,17.1891201 17.1891201,19.3688138 14.4988805,19.3688138 Z M14.4988805,7 C10.3570108,7 7,10.3562645 7,14.5003732 C7,18.6414966 10.3570108,22 14.4988805,22 C18.6429892,22 22,18.6414966 22,14.5003732 C22,10.3562454 18.6429892,7 14.4988805,7 L14.4988805,7 Z" id="path3800"></path>
                <path d="M24,6.50032758 C24,7.32822498 23.3279187,8 22.4996805,8 C21.6707868,8 21,7.3282086 21,6.50032758 C21,5.6717914 21.6708032,5 22.4996805,5 C23.3279351,5 24,5.6717914 24,6.50032758" id="path3802"></path>
            </g>
        </g>
    </g>
</svg>